<?xml version="1.0" encoding="UTF-8"?>
<!DOCTYPE svg PUBLIC "-//W3C//DTD SVG 1.1//EN" "http://www.w3.org/Graphics/SVG/1.1/DTD/svg11.dtd">
<!-- Creator: CorelDRAW -->
<svg xmlns="http://www.w3.org/2000/svg" xml:space="preserve" width="210mm" height="297mm" version="1.1" style="shape-rendering:geometricPrecision; text-rendering:geometricPrecision; image-rendering:optimizeQuality; fill-rule:evenodd; clip-rule:evenodd"
viewBox="0 0 210 297"
 xmlns:xlink="http://www.w3.org/1999/xlink"
 xmlns:xodm="http://www.corel.com/coreldraw/odm/2003">
 <defs>
  <style type="text/css">
   <![CDATA[
    .fil1 {fill:#040304}
    .fil3 {fill:#08BCA7}
    .fil14 {fill:#2DB6A7}
    .fil9 {fill:#2F68A4}
    .fil16 {fill:#335071}
    .fil6 {fill:#33598C}
    .fil5 {fill:#6F0913}
    .fil13 {fill:#8F0916}
    .fil19 {fill:#90B2AE}
    .fil15 {fill:#93308F}
    .fil8 {fill:#9EA19E}
    .fil11 {fill:#AB2F96}
    .fil10 {fill:#B0122B}
    .fil0 {fill:#BA25B6}
    .fil7 {fill:#BDBBBA}
    .fil18 {fill:#D0D0D0}
    .fil17 {fill:#D1F4EF}
    .fil4 {fill:#D20929}
    .fil12 {fill:#E4E4E3}
    .fil2 {fill:#FCFCFC}
   ]]>
  </style>
 </defs>
 <g id="Слой_x0020_1">
  <metadata id="CorelCorpID_0Corel-Layer"/>
  <g id="_2167066154256">
   <path class="fil0" d="M52.5992 171.6512c0.1109,-0.5372 0.2477,-1.0339 0.473,-1.5468 0.151,-0.3439 0.6218,-1.1316 0.5068,-1.5192 -0.0474,-0.1598 -0.1035,-0.3832 -0.1668,-0.5712 -0.2376,-0.1227 -0.4898,-0.2359 -0.7259,-0.371 -1.0802,-0.6181 -2.1648,-1.2801 -3.2731,-1.844 -1.1547,-0.5876 -2.3818,-1.0625 -3.5902,-1.5262 -1.0721,-0.4113 -2.1992,-1.0028 -2.9179,-1.9199 -1.0592,-1.3515 -0.8964,-2.9309 0.0421,-4.3119 0.0077,-0.0114 0.0163,-0.0239 0.0252,-0.0372 -0.0167,-0.0321 -0.033,-0.0631 -0.0473,-0.0917 -0.1283,-0.2566 -0.246,-0.5132 -0.3484,-0.7815 -0.3739,-0.9802 -0.6082,-2.0093 -0.8281,-3.0329 -0.1223,-0.5695 -0.2891,-1.0948 -0.3165,-1.6855 -0.0461,-0.9928 0.3295,-1.8483 1.14,-2.4414 1.2367,-0.9051 2.2973,-1.0729 3.7702,-1.1258 0.4194,-0.0151 0.7335,0.0444 0.9723,-0.3263 0.3096,-0.4805 0.306,-1.2786 0.1753,-1.8153 -0.2786,-1.1441 -1.2607,-2.1677 -2.3586,-2.5628l-0.4625 -0.1665 -0.2526 -0.3756c-0.0843,-0.0805 -0.2457,-0.1804 -0.3374,-0.2414 -0.2808,-0.1865 -0.556,-0.3687 -0.804,-0.5994l-2.6159 -2.4345 3.5698 -0.1621c1.2207,-0.0554 2.3446,-0.1785 3.5791,-0.1284l0.208 0.0085 1.8035 0.5906 0.8612 0.4917c0.006,-0.0946 0.0117,-0.188 0.0173,-0.2799 0.0564,-0.9242 0.087,-1.8597 0.1949,-2.7792 0.2102,-1.7899 0.4386,-3.4933 0.8895,-5.2441 0.8083,-3.1382 2.2421,-6.0897 3.473,-9.0758 1.0154,-2.4633 2.0754,-5.3242 1.9564,-8.0269 -0.0461,-1.0448 -0.8168,-2.6711 -1.3183,-3.5903 -0.4191,-0.7684 -1.3815,-2.3489 -2.0964,-2.8572l-3.2218 -2.2909 3.9305 -0.423c1.027,-0.1105 2.3218,0.0789 3.3407,0.245 1.3863,0.226 2.7708,0.5265 4.1367,0.8536 1.2849,0.3076 2.5685,0.6438 3.8357,1.0178 0.7233,0.2135 1.7416,0.4939 2.4053,0.8416 0.4822,0.2527 0.9525,0.5442 1.4254,0.8152 0.0881,0.0505 0.1996,0.1162 0.3197,0.1847 0.2156,-0.2367 0.4258,-0.4867 0.5647,-0.6464 0.4819,-0.5539 0.9575,-1.1444 1.4664,-1.671 3.0624,-3.1684 6.2538,-5.9325 9.8641,-8.4639 3.4094,-2.3906 13.2284,-7.6521 17.2545,-7.5663l1.7143 0.0366 -0.2642 1.6942c-0.1233,0.7903 -0.605,1.9132 -0.9035,2.6703 -0.3196,0.8108 -0.6887,1.6558 -0.9612,2.4801 -1.0624,3.2139 -2.9759,12.2212 1.2683,13.9393 0.215,0.087 0.9055,0.3619 1.1913,0.3798 0.1144,-0.0883 0.2863,-0.2829 0.3645,-0.3677 0.361,-0.3913 0.7117,-0.7764 1.0967,-1.1459 2.981,-2.8611 9.9389,-8.2964 14.1502,-8.1865l1.7709 0.0462 -0.3375 1.7391c-0.0953,0.491 -0.3847,1.099 -0.5648,1.5776 -0.3091,0.8216 -0.5576,1.6526 -0.7449,2.5105 -0.3029,1.3874 -0.3611,3.355 -0.1624,4.7615 0.4519,3.1978 2.0966,3.1757 4.8222,3.8742 2.8858,0.7395 5.717,1.612 8.5532,2.5196 2.1262,0.6804 7.5628,1.649 8.9899,3.0489l0.3513 0.3446 0.0789 0.4856c0.4252,2.6172 -1.3429,5.0138 -2.5528,7.1639 -0.5759,1.0235 -1.2693,2.0069 -2.0831,2.8557 -0.3526,0.3676 -0.6913,0.6617 -1.0496,0.9905 -0.0922,0.2759 -0.1714,0.5896 -0.2544,0.8721 -0.2181,1.6118 -1.1581,2.8601 -2.3625,3.908 -0.5731,0.4985 -1.0931,0.8021 -1.7591,1.1498 -0.405,0.2114 -0.753,0.5429 -1.1269,0.8206l-0.1567 0.1724 0.2734 0.8181c0.1767,0.5289 0.3121,1.1271 0.3963,1.7465 0.034,-0.0049 0.0684,-0.0092 0.1034,-0.0129l1.6226 -0.1735 0.0284 1.2702c0.1151,-0.0243 0.2316,-0.0447 0.35,-0.0596 1.195,-0.1505 2.1937,0.2844 3.1439,0.9748 0.9095,0.6607 1.5809,1.4508 1.8288,2.568 0.1071,0.4827 0.1223,0.9773 0.1075,1.4723 1.4282,0.5191 2.5559,1.0543 3.4949,2.5992 0.7098,1.1678 0.8738,2.1673 0.7165,3.5136 -0.0767,0.6562 -0.2828,1.1975 -0.6321,1.7536 -0.0652,0.1036 -0.1356,0.2067 -0.2052,0.3108 0.0038,0.0078 0.0076,0.0157 0.0113,0.0235 0.1756,0.3681 0.3083,0.7468 0.3781,1.1497 0.2147,1.2404 -0.2142,2.3715 -0.9865,3.3347 -1.421,1.7722 -3.2659,1.5969 -5.2824,1.5706 -1.6302,-0.0213 -1.9456,0.1666 -3.4027,0.8262 -0.3193,0.1446 -1.0825,0.5893 -1.6965,0.9962 0.1927,0.2382 0.3883,0.4635 0.5292,0.6333 0.1963,0.2365 0.5568,0.5137 0.7948,0.7183 0.4812,0.4135 1.0052,0.8659 1.1771,1.503l0.3461 1.2836 -1.2327 0.4979c-0.2627,0.106 -0.5778,0.2216 -0.9017,0.3478 0.3144,0.4121 0.5846,0.8613 0.8263,1.315 0.7236,1.3586 1.0274,2.8936 0.9492,4.4272 -0.173,3.3912 -2.1195,5.0737 -5.125,6.1739 -2.8154,1.0306 -5.7192,-0.0258 -8.5473,-0.198 -1.423,-0.0866 -2.8668,-0.1212 -4.277,-0.3387 -0.5745,-0.0886 -1.0345,-0.3214 -1.4549,-0.6374l-7.7643 -0.398c-2.2874,-0.0695 -4.59,-0.1422 -6.8943,-0.1263 -1.4048,0.0096 -3.0272,-0.0019 -4.4033,0.303 -1.2528,0.2775 -2.4836,0.8883 -3.6314,1.4463 -1.1019,0.5356 -2.7031,1.3246 -3.8881,0.6863l-1.3994 -0.7539 0.7493 -1.2165 -6.39 0.1065 0.0072 -0.8697c-0.453,0.4825 -0.8542,0.8889 -1.6127,0.9573 -0.2569,0.0232 -0.5118,-0.0033 -0.7683,-0.0163 -0.1128,0.6056 -0.2663,1.2167 -0.4957,1.6893 -0.5234,1.0786 -1.5742,1.5524 -2.6999,1.0918 -0.559,-0.2287 -1.0885,-0.6661 -1.5859,-1.0109 -0.5317,-0.3686 -1.0689,-0.6835 -1.6729,-0.913 -0.7228,-0.1385 -2.0393,-0.0381 -2.7373,0.0128 -1.6031,0.1171 -3.2136,0.321 -4.8048,0.5467 -2.8419,0.4031 -5.7973,0.8794 -8.5996,1.506 -1.0811,0.2417 -2.1997,0.6093 -3.2932,0.7517l-2.0225 0.2632 0.3513 -2.0091c0.1557,-0.8906 0.5096,-1.8626 0.8208,-2.7121 0.4037,-1.1018 0.8402,-2.193 1.27,-3.2849 0.4016,-1.0206 0.8077,-2.0473 1.1643,-3.0845 0.0934,-0.2717 0.2893,-0.8306 0.3927,-1.264 -0.2498,-0.282 -0.395,-0.5487 -0.5432,-0.9973l-0.7391 -2.2362 2.2688 0.2676z"/>
  </g>
  <path class="fil1" d="M127.3413 141.2078c0.5195,-0.3511 0.7833,-0.6828 1.435,-1.023 0.599,-0.3127 0.9516,-0.5018 1.4687,-0.9518 0.9401,-0.8178 1.7379,-1.7978 1.8737,-3.0864 0.6563,-2.0884 0.0752,-0.9017 1.6947,-2.5907 0.7228,-0.7538 1.3483,-1.6461 1.8586,-2.5531 0.9295,-1.6517 2.7163,-4.1141 2.3794,-6.1877 -0.9976,-0.9786 -6.6902,-2.145 -8.3967,-2.6911 -2.9206,-0.9346 -5.4994,-1.7344 -8.4684,-2.4952 -2.9108,-0.746 -5.346,-0.9491 -5.935,-5.1174 -0.217,-1.5364 -0.148,-3.7789 0.1821,-5.2912 0.5017,-2.2978 1.2148,-3.6011 1.3027,-4.054 -3.5557,-0.0928 -10.2087,5.0207 -13.0724,7.7692 -1.8192,1.7461 -1.6193,2.5085 -4.254,1.442 -5.2223,-2.1141 -3.5742,-11.4306 -2.1297,-15.8005 0.3551,-1.0739 1.6826,-4.1143 1.8068,-4.9107 -3.577,-0.0763 -13.2465,5.1108 -16.3614,7.2948 -3.6158,2.5353 -6.6031,5.1293 -9.6466,8.2782 -0.6898,0.7137 -2.1566,2.5924 -2.8301,3.0579 -0.6279,-0.1864 -2.0179,-1.086 -2.7208,-1.4542 -1.1569,-0.6062 -10.2738,-3.0738 -12.8618,-2.7953 1.4906,1.0599 3.9455,5.3689 4.044,7.604 0.2501,5.6763 -3.9398,11.5816 -5.4753,17.5428 -0.4537,1.7618 -0.6418,3.253 -0.8523,5.045 -0.1866,1.5893 -0.1465,3.8332 -0.5005,5.2972l-2.6742 -1.5267 -1.4609 -0.4784c-1.3659,-0.0555 -2.1597,0.0695 -3.4502,0.1281 0.3907,0.3636 1.0642,0.6555 1.3426,1.0696 1.5514,0.5584 2.9052,1.9652 3.308,3.6193 0.2362,0.9703 0.1622,2.1539 -0.3717,2.9826 -1.1882,1.8442 -2.9176,0.2402 -5.1177,1.8502 -0.8668,0.6344 -0.4587,1.5955 -0.2427,2.6014 0.2006,0.9338 0.4227,1.921 0.763,2.8132 0.4441,1.1639 0.9067,1.2625 0.2096,2.2882 -1.445,2.1265 0.4486,3.3268 2.1726,3.9883 3.646,1.399 3.9518,1.6839 7.0709,3.4687 1.2725,0.7281 1.1272,0.2724 1.5857,1.8173 0.2866,0.9657 -0.1906,1.6821 -0.5715,2.5493 -0.4588,1.0443 -0.3853,1.8156 -0.7388,2.6593 -0.7419,0.1654 -0.4642,-0.1296 -1.213,-0.2179 0.2261,0.6841 0.4075,0.5064 0.684,0.9848 0.095,1.6081 -3.3182,8.7023 -3.7352,11.0871 0.8151,-0.1061 2.2641,-0.5279 3.1595,-0.7281 3.3182,-0.7419 14.2955,-2.6487 16.8887,-2.0457 3.479,1.2585 4.0243,4.3193 4.7468,-0.8957 2.4778,-0.1509 1.7042,0.4143 2.826,-0.7503 0.5028,-0.522 1.5862,-1.1774 2.3644,-1.2907l-0.016 1.9269 7.7439 -0.1291c-0.2163,1.2843 -0.9954,1.3703 -1.5051,2.1978 0.5077,0.2735 1.9125,-0.4191 2.5209,-0.7148 3.4179,-1.6614 4.2561,-1.8699 8.6802,-1.9002 2.3513,-0.0162 4.6399,0.0568 6.9658,0.1276l6.653 0.3409 0.0145 -1.1169c1.0845,0.2774 1.6191,1.6579 2.7191,1.8276 1.2907,0.199 2.8179,0.2435 4.1395,0.324 2.4403,0.1485 5.5988,1.1439 7.9406,0.2866 2.3695,-0.8673 3.9994,-2.0363 4.1425,-4.8417 0.0648,-1.272 -0.1835,-2.5352 -0.775,-3.6456 -1.0767,-2.0215 -1.6761,-1.7859 -1.9169,-2.4784 0.7417,-0.5463 1.8898,-0.9313 2.7545,-1.2805 -0.0945,-0.3504 -1.2301,-1.1144 -1.6779,-1.654 -0.4418,-0.5324 -1.0929,-1.2757 -1.364,-1.9029 0.355,-0.5103 2.4788,-1.7848 3.067,-2.051 1.6263,-0.7362 2.0956,-0.9851 4.0409,-0.9596 1.5271,0.0199 3.0803,0.2533 4.0925,-1.009 1.567,-1.9544 0.0511,-3.2266 0.0945,-3.6634 0.3763,-0.8358 0.9048,-1.1561 1.0203,-2.1447 0.1205,-1.0313 0.0204,-1.6904 -0.5084,-2.5604 -0.9187,-1.5116 -2.1957,-1.7743 -3.7691,-2.3396 0.0913,-1.8007 0.287,-2.7401 -1.262,-3.8655 -1.7704,-1.2862 -2.4062,-0.5242 -4.0687,-0.1695l-0.035 -1.5644c-0.8116,0.0868 -0.8707,0.8896 -1.8126,1.4011 0.2922,-1.2391 0.1256,-2.9691 -0.2693,-4.1508 -0.5355,0.2845 -0.3133,0.5029 -0.901,0.9144l-0.7914 -0.5052c-0.0678,-0.4898 0.0757,-1.3785 0.1619,-1.8912 0.1318,-0.7843 0.2391,-0.8569 0.9352,-1.2417l0.0916 0.2343c0.2563,0.7583 -0.1741,0.0881 0.1622,0.6056l0.6452 -0.7094z"/>
  <path class="fil0" d="M98.5084 127.3961c-0.5196,-0.1763 -6.4293,-5.6315 -6.8045,-6.2053 1.4304,0.5809 6.5825,4.8862 6.8045,6.2053zm11.2072 -1.522c-2.8493,-1.684 -6.7449,-4.2617 -9.8099,-5.5987 -1.164,-0.5078 -2.4295,-1.0767 -3.488,-1.5944 3.4805,0.4486 11.5567,4.2634 13.2979,7.1931zm-38.8229 -0.4712c-0.0637,-2.8323 2.1374,-7.1899 4.7466,-7.9814 -0.4205,0.3261 -2.4498,3.0438 -2.8343,3.6346 -0.6213,0.9547 -1.95,3.3101 -1.9123,4.3468zm0.7151 -0.4282c0.0937,-0.7587 1.4403,-2.8924 1.9423,-3.7332 0.8561,-1.4342 1.4031,-2.1585 2.6598,-3.1787 1.7814,-1.4462 6.0967,-3.3869 8.434,-3.2752 -0.3777,0.5631 -1.4213,0.6893 -2.0943,0.9371 -1.8961,0.6982 -3.9929,1.8584 -5.5709,3.1076 -1.1776,0.9322 -5.1754,4.8266 -5.3709,6.1424zm-9.331 -1.0002l0.3016 0.0168c-0.581,0.9614 -2.8912,2.2603 -5.299,7.1694 -1.315,2.6809 -2.8428,6.8366 -2.1696,10.0118 0.7683,-0.7682 -0.2033,0.8781 0.2085,-0.349 0.0132,-0.0394 0.029,-0.0797 0.0402,-0.1236 0.0187,-0.0732 0.0223,-0.4072 0.0268,-0.513 0.0983,0.4311 0.1484,0.5004 0.4681,0.7308 0.0252,-0.0373 0.0525,-0.1404 0.061,-0.1203l0.1002 -0.2492c0.0109,-0.0445 0.0221,-0.0822 0.0314,-0.1327 0.1131,-0.6124 -0.177,-2.5281 0.5488,-3.5419 0.0358,0.909 -0.0864,3.6123 0.4235,4.2352 0.287,-0.626 0.046,-2.2867 0.0865,-3.1141 0.1292,-2.6379 1.1817,-5.5418 2.5462,-7.7456 1.1725,-1.8938 5.109,-6.0082 7.2247,-6.486 -0.9286,1.2854 -3.2304,2.2031 -3.4402,4.2574l0.0836 0.4248c0.0778,-0.0439 0.1246,-0.136 0.1403,-0.1077 0.0644,0.1154 0.3189,-0.6534 1.1007,-0.9303 -0.0204,0.2835 -0.0579,0.5588 -0.0965,0.8324 -0.0828,0.5873 0.0284,0.4978 -0.3263,0.7833 0.0195,2.1728 -0.5915,3.8955 0.1433,6.9294 -0.09,-4.4045 -0.4212,-9.4925 3.9635,-11.7997 -2.0418,0.0749 -4.6142,7.3112 -3.4591,9.1074 0.5074,-0.2127 0.7318,-1.1197 1.0333,-1.6246 0.8399,-1.4063 2.2591,-3.8627 3.7282,-4.5339 -0.5319,0.8404 -1.2844,1.699 -1.8903,2.6715 -0.5229,0.8393 -1.2976,2.2856 -1.6384,3.1778 -0.7347,1.9234 -1.5111,6.0268 -0.8061,8.1011 0.1392,-0.3166 0.0267,-2.7528 0.1169,-3.4681 0.2797,-2.2164 1.4188,-7.0015 3.4325,-7.6941 -0.4657,1.7082 -1.0746,2.0613 -1.5276,5.1739 -0.3142,2.1586 -0.2136,4.0233 0.411,6.0857 0.2649,-0.448 -0.1595,-2.5334 -0.1786,-3.2961 -0.0579,-2.317 0.2861,-4.1217 1.1775,-6.2498 0.2372,-0.566 0.2744,-0.744 0.643,-1.2088 0.3332,-0.4203 0.4967,-0.5028 0.8504,-0.9093 -0.5093,0.8744 -0.8499,1.3419 -1.1946,2.3605 0.9677,-0.3354 1.3577,-3.2611 2.8951,-3.7621 -1.2737,1.9354 -2.2166,3.4965 -2.7045,6.03 -0.5548,2.8805 -0.2849,5.3376 0.1242,8.1838 0.3242,0.3831 0.0698,0.112 0.3642,-0.0338 -0.1073,-2.8627 -0.9327,-6.2508 0.2791,-9.8406 0.654,-1.9374 3.1592,-5.2634 5.0296,-5.8502l-0.6753 1.2811c-0.0772,0.6482 -2.0035,4.0854 -2.6335,7.7414 -0.2877,1.6694 -0.3627,3.2028 0.1009,4.8491 0.3219,1.1432 0.5482,1.7425 1.1226,2.7181 0.4217,0.7165 0.2191,0.5525 0.7153,0.9123l-0.0164 -0.8993c-0.2613,-0.2923 -0.623,-1.9566 -0.728,-2.3927 -0.2157,-0.8959 -0.2678,-1.8569 -0.2427,-2.79 0.0469,-1.7401 0.3853,-3.4064 1.0697,-4.9419 0.9187,-2.0614 3.869,-5.5212 5.6836,-6.4212 -0.2692,0.6339 -0.6043,0.3414 -0.8001,1.0943 -0.1465,0.6355 -1.3145,2.3445 -1.7092,3.1124 -0.6007,1.1688 -1.0272,2.3347 -1.339,3.6356 -0.4594,1.9168 -0.618,6.8821 1.1716,8.0975 -0.0491,-1.6802 -0.516,-2.4831 -0.3641,-5.431 0.2099,-4.0709 1.8645,-8.2916 5.6672,-10.1304 0.1669,-0.0807 0.3006,-0.1422 0.4745,-0.2255 0.047,-0.0225 0.2706,-0.1294 0.298,-0.1435l0.3071 -0.1693c-1.8094,-0.7239 -1.9125,-0.8044 -3.9797,-0.936 1.2726,-0.8711 2.5811,-0.6643 4.0308,-0.7984 -0.3625,-0.3831 -0.8923,-0.2879 -1.3651,-0.5095 0.9088,-0.1801 2.1039,-0.6313 2.998,-0.5355 0.5642,-0.444 1.8745,0.0037 2.3794,-0.3497 -1.1207,-0.4162 -3.594,-0.4414 -4.274,-0.8509 0.8216,-0.0918 1.4714,-0.058 2.292,0.0252 0.8754,0.0887 1.4529,0.3656 1.9032,0.1053 -4.8434,-1.1554 -2.6616,-0.383 -5.5544,-0.4226 0.6132,-0.6622 4.6049,-1.2142 5.3068,-0.638 4.7744,-0.3929 9.6602,7.7427 11.5636,6.3161 1.275,-1.5991 -2.9604,-5.1908 -4.1974,-6.0015 -2.0797,-1.363 -4.8847,-2.708 -7.2469,-3.4551 -3.5871,-1.1344 -4.9683,-0.038 -8.0094,1.6721 -1.0799,0.6072 -2.1658,1.3185 -3.2311,2.0143 -0.717,0.4683 -2.7221,2.2756 -3.0674,2.431 0.6436,-1.6891 5.1088,-5.3831 6.8623,-6.4552 1.452,-0.8877 3.1047,-1.4909 4.8068,-1.8635l5.7501 0.2646c0.1874,0.0965 0.1499,0.0775 0.2864,0.1924 -0.8956,0.1858 -3.0031,0.3612 -3.6174,0.6902l0.2122 0.1134c0.9538,0.3593 -0.5641,-0.1388 0.223,0.083 0.0163,0.0046 0.5638,0.0896 0.6033,0.095 0.4212,0.0578 0.7865,0.1238 1.1997,0.2054 4.2566,0.841 10.5172,3.853 12.8437,7.056 -0.5707,-0.1436 -4.4305,-3.2496 -7.0926,-4.5683 -2.193,-1.0863 -6.571,-2.6666 -9.1315,-2.5842 0.9469,0.6899 6.2334,1.2028 10.2642,3.4487 3.2189,1.7935 5.3537,4.5686 6.6595,5.2941 0.8131,0.4517 0.6072,0.1297 0.8879,0.956 1.7321,0.2301 5.0754,0.2938 6.844,0.1803 1.7523,-1.2455 8.5202,0.5081 9.0316,0.1808 -2.3997,-1.3174 -3.1973,-1.0296 -6.6518,-3.4704 -1.8948,-1.3387 -3.9711,-3.0217 -5.8513,-4.2517 -3.9811,-2.6046 -9.9434,-4.803 -14.6246,-5.6015 -7.7302,-1.3186 -17.6172,1.1659 -24.1623,5.2682 -1.2003,0.7523 -5.2346,3.2037 -5.8469,4.2044z"/>
  <path class="fil2" d="M80.9328 140.83c0.4112,-1.0198 2.3745,-3.7067 3.1861,-4.4711 1.3496,-1.2708 3.1098,-2.2411 4.9033,-2.7948 2.0656,-0.6378 4.4463,-0.536 6.3906,0.4409 0.8282,0.4161 3.8336,2.7271 4.1189,3.444 -1.7738,-1.1267 -2.3501,-1.7516 -4.5328,-2.3018 -5.5004,-1.3864 -10.483,2.0456 -14.0661,5.6828zm12.9145 -9.0349c-6.9248,-1.1677 -12.7611,3.5606 -15.3252,9.3549l-0.1352 0.2594c-0.0451,1.4496 0.045,1.7118 0.4907,3.0317 -0.5128,-0.2128 -0.6036,-0.5128 -0.9449,-1.0404 -0.2516,-0.389 -0.5076,-0.7095 -0.7132,-1.1101 -0.2236,0.3471 -0.0554,0.5845 -0.0535,1.1445l-0.3166 -0.8654c-1.7896,-1.2154 -1.631,-6.1807 -1.1716,-8.0975 0.3118,-1.3009 0.7383,-2.4668 1.339,-3.6356 0.3947,-0.7679 1.5627,-2.4769 1.7092,-3.1124 -1.858,1.5337 -3.3642,5.193 -3.759,7.6033 -0.757,4.6217 1.2037,6.8439 1.5627,9.434 -1.8395,-1.2477 -2.372,-3.983 -2.8712,-5.0618l0.085 3.476 0.0164 0.8993c-0.4962,-0.3598 -0.2936,-0.1958 -0.7153,-0.9123 -0.5744,-0.9756 -0.8007,-1.5749 -1.1226,-2.7181 -0.4636,-1.6463 -0.3886,-3.1797 -0.1009,-4.8491 0.63,-3.656 2.5563,-7.0932 2.6335,-7.7414 -3.2528,4.348 -4.7895,11.6798 -1.4858,16.8118 0.4429,0.688 1.1322,1.1456 1.4646,1.7848 -1.1598,-0.5285 -7.1965,-4.6318 -9.0217,-3.4705 -0.4751,0.3198 -0.4858,1.2569 -0.4713,1.8444 0.0237,0.9621 -0.0166,1.4229 0.4022,1.9233 0.0232,-0.7259 0.0406,-3.2657 0.5549,-3.6072 1.6571,0.2029 3.9862,1.0097 5.3669,1.9467 1.512,1.0261 2.7045,2.6054 4.7155,2.604 1.2154,-0.2884 2.1524,-1.4371 2.4832,-2.4729l-0.269 0.9459c0.5161,0.5111 -0.1163,-0.0103 0.2439,0.1485 0.0386,0.0171 0.0337,-0.0469 0.265,0.0769 -0.9411,2.2303 -2.2189,4.4131 -4.186,6.0504 0.2982,1.7594 1.7888,4.4195 3.5454,5.0501 1.6591,0.5956 6.2098,0.2214 8.1247,0.0643 2.0006,-0.1642 15.3397,-0.2899 16.2065,0.4003 1.5182,0.0344 2.8381,0.6444 4.2239,-0.2476 -6.3201,-0.5585 -7.7509,-4.5694 -15.4803,-2.2346 -5.8096,1.7549 -9.9786,2.5428 -11.8035,-4.5161 -0.6029,0.17 -1.9342,1.4276 -2.7104,1.8372 0.4138,-0.6057 1.2358,-1.2049 1.7464,-1.9801 0.4829,-0.7332 0.8858,-1.6145 1.304,-2.3968 2.3382,-4.3749 5.7678,-9.8619 10.9793,-11.2406 4.0414,-1.0692 7.9986,1.1968 11.51,2.8965 1.8555,0.8982 3.6985,1.5252 5.7792,1.6065 1.0112,0.0395 5.5118,-0.2466 5.7692,-1.3466 -0.6253,-0.0336 -1.9208,0.3326 -2.7699,0.3764 -2.1659,0.1117 -6.292,-0.4919 -7.5763,-1.854 4.4666,1.1208 7.4489,1.7154 12.3349,-0.3633 1.6688,-0.7099 3.0885,-1.8161 4.2011,-3.1966 0.7798,-0.9674 2.256,-3.4529 2.5198,-4.6599 -0.9304,0.0758 -1.1706,1.0721 -1.6618,1.8201 -1.0217,1.5558 -3.5972,4.5087 -5.276,4.989 0.8915,-0.872 2.027,-1.4358 2.7642,-2.3807 0.6224,-0.7976 1.7667,-2.195 1.8601,-3.2362 -0.2304,-0.0832 -3.185,-0.1015 -3.4149,0.0303 -0.3619,1.2203 -1.6932,4.0949 -3.0001,1.9009 0.6497,-0.8484 1.8206,-1.121 2.6371,-1.8647 -0.8374,-0.4222 -7.0943,0.6511 -8.6659,0.642 -2.9958,-0.0173 -5.8306,-0.9023 -8.5913,-0.9291l0.1971 1.1236c-0.4504,-0.251 -0.5501,0.3573 -0.3249,-0.3721 -0.806,-0.9701 -0.6696,-1.0577 -1.9259,-1.6491 -2.7024,-1.2721 -4.3428,-0.98 -4.9629,-2.1421 -0.6092,-1.1414 -0.0637,-2.0368 0.1311,-3.0921 -0.4527,-0.2538 -0.6763,-0.1986 -1.1807,-0.5558 -0.3447,-0.2439 -0.5481,-0.4444 -0.9401,-0.6572 -0.9856,1.2577 -0.9774,4.3122 2.6499,5.1916 1.7207,0.4172 4.2208,2.2444 4.9179,3.7951 -1.112,-0.5238 -2.5006,-1.5378 -3.7866,-1.4537z"/>
  <path class="fil3" d="M64.4735 161.1848l0.6309 0.0241c-3.0322,1.3378 -4.7264,-0.6175 -7.5045,4.2355 -0.1194,-2.5543 1.6398,-2.767 3.1217,-3.7082 -3.5923,0.3464 -5.3163,4.0437 -3.6661,5.3872 1.5947,1.2983 6.9915,-0.9536 8.5541,-0.7198 -0.1966,2.1242 -7.3675,1.6998 -8.0577,1.7296 -0.4173,0.8333 -1.3621,2.4253 -1.5614,3.2348 2.7585,-0.6568 9.8711,-1.4018 11.3558,-1.9884 1.6384,-0.6474 1.2815,-1.5837 1.9279,-2.5602 0.4256,2.1919 2.0051,2.3536 3.9855,2.061 3.511,-0.5189 4.2961,-0.1639 5.8534,-0.3497l0.4831 -2.5681c-1.3174,-0.0272 -4.8376,0.5183 -5.791,0.0689 -0.4335,-0.7156 0.0787,-2.5425 0.3818,-3.3227 1.609,-0.4007 3.8671,-0.137 5.3223,-0.4729 0.2759,-0.2319 1.3917,-1.94 1.5182,-2.2872 -1.8941,-0.1172 -6.3186,-0.0744 -8.0737,0.3466 -2.7996,0.6715 -3.2926,2.3382 -3.6424,4.9541 -0.5091,-0.4589 -0.5453,-0.9859 -1.3933,-1.1719 -1.2045,-0.2642 -5.7172,1.1299 -6.2054,0.6933 -0.8537,-1.5673 2.7502,-1.5306 3.6148,-1.6823 1.5301,-0.2686 2.5026,-1.0407 3.0669,-2.5528l-3.9209 0.6491z"/>
  <path class="fil3" d="M50.8143 149.6126c-0.054,-0.8887 0.388,-2.0408 1.1168,-2.5278 -0.4047,1.5536 -0.1387,1.1465 0.0328,2.4969l-1.1496 0.0309zm-6.4725 4.4499l1.9076 5.6462c0.2358,0.5558 0.6358,1.069 0.8098,1.6058 -0.7249,-0.4242 -0.9877,-1.4814 -1.5965,-2.0314 -0.252,1.9129 1.7822,3.0167 3.2688,3.7836 -0.1641,-0.5917 -1.3628,-2.1685 -2.1001,-4.1511 -0.4127,-1.1097 -1.5317,-3.7715 -0.9514,-4.8004 0.5474,0.0375 1.6336,2.039 1.653,2.093 -0.6056,-0.5596 -0.833,-1.2872 -1.6077,-1.6086 0.1027,1.9572 2.3804,4.6616 3.6812,5.9516 0.9841,0.976 4.1333,3.6909 5.5093,3.9858 -0.3482,-0.7919 -1.639,-1.318 -2.3443,-1.8917 -1.8815,-1.5302 -4.9735,-5.492 -5.1608,-7.15 -0.7662,-0.5426 -1.0705,-1.4014 -0.8732,-2.3636 0.7459,-0.0131 2.2958,1.4889 3.1557,1.7254 0.1898,-1.4934 0.1845,-3.0564 0.6794,-4.4719 0.4226,1.1757 0.207,1.7041 0.9856,3.0868 3.3135,5.884 5.207,5.8399 5.8667,6.905 -1.6471,-0.5034 -4.6941,-3.1003 -5.6916,-4.7994 -0.4446,-0.7576 -0.8395,-1.7822 -1.2102,-2.3678 0.2981,2.8057 2.7123,4.6836 3.539,5.9843 -1.0968,-0.478 -4.5215,-4.1764 -6.4006,-4.4762l0.1438 0.7441c0.274,0.2863 0.9456,1.7007 1.5128,2.3787 1.2961,1.5495 4.4349,4.8576 6.3063,5.2723l0.2765 -0.426 -3.3407 -2.1687c1.9258,0.8619 2.9007,2.4365 4.1344,1.4274 0.6875,-0.5624 1.0768,-0.8471 1.9205,-1.2158 0.5213,-0.2279 1.9908,-0.6404 2.2436,-0.8237 -0.2162,-0.2646 -2.5233,-1.3645 -3.1854,-1.8827 -2.9651,-2.3207 -4.2813,-7.6532 -3.8349,-11.2291 0.503,0.9197 0.6086,3.4908 3.2376,5.8026 0.2528,-0.3011 0.7408,-3.3494 3.1999,-2.8292l-0.4893 0.1969c-0.3665,0.1098 -0.6384,0.0736 -1.1083,0.4463 -0.4562,0.3617 -0.655,0.727 -0.7624,1.3166 0.6671,-0.7297 0.7063,-1.3513 2.0143,-1.3411 1.0998,0.0084 1.2983,0.5663 2.1492,0.9929l1.6098 -1.5536c-2.5875,-1.8239 -5.0419,-3.5943 -8.1357,-4.7663 -1.2977,-0.4916 -1.8312,-0.9864 -3.0021,-0.0685 -1.7279,1.3547 -2.3382,3.5868 -2.9358,5.6223 -0.4733,1.6119 -1.281,1.1955 -2.7694,1.4916 -2.4207,0.4816 -1.6418,1.1548 -2.3044,1.9576z"/>
  <path class="fil2" d="M109.7174 172.2491c0.9689,0.0191 3.2717,-0.1073 2.6468,1.4693 -0.7115,0.2853 -1.7973,0.0958 -2.5749,0.01l-0.0719 -1.4793zm-15.4005 4.7011c0.6587,-1.6681 4.52,-6.503 4.8769,-7.4662l-6.1831 -0.196c-0.4419,0.4431 -1.1972,1.7045 -1.3436,2.3109l3.0243 0.1421c-0.1773,0.5195 -2.2747,3.3649 -2.7534,4.0238 -0.8391,1.155 -2.0719,2.8119 -2.7128,4.0444 2.1175,-0.2262 8.5675,-0.2213 8.9821,-0.3229 0.0302,-0.7179 0.196,-1.7761 -0.0069,-2.4221l-3.8835 -0.114zm-7.577 0.1428c0.6987,-1.6871 5.5937,-7.0623 5.5091,-8.1906l-8.2901 0.1766c-0.1865,0.6807 0.0484,1.9061 0.0508,2.6975l3.4976 -0.1694c-0.4363,1.224 -4.2846,5.4024 -5.3158,8.0927l6.6657 -0.0603 1.6214 -2.5391 -3.7387 -0.0074zm-8.1765 -2.17c0.1098,-0.4867 1.3533,-2.68 1.7868,-2.8862l-0.382 2.8724 -1.4048 0.0138zm3.9859 3.4792c0.3078,-1.1457 0.3057,-3.2973 0.3756,-4.559 0.0883,-1.5908 0.2049,-2.7123 0.5298,-4.2544 -5.8529,0.3561 -3.4857,-1.227 -6.7576,3.4561 -0.6373,0.9121 -3.8924,5.5042 -4.1088,6.1185 2.2936,0.1164 2.8206,0.5147 3.8671,-1.8083 1.4392,-0.0672 2.0438,0.1739 3.491,-0.2804l-0.0583 1.5209c0.7954,-0.0306 2.04,0.1398 2.6612,-0.1934zm-13.5477 -5.6718c0.8987,-0.2242 3.0163,-0.6815 2.5103,0.9303 -0.2876,0.916 -2.1186,0.7213 -2.939,0.6616l0.4287 -1.5919zm2.0467 3.0933c0.9004,0.317 2.2823,0.1127 2.8449,-0.7501 0.4738,-0.7267 0.603,-2.0799 0.7184,-2.9605 0.2189,-1.6716 -0.4257,-1.7754 -1.9326,-1.6438 -1.105,0.0965 -2.2051,0.2254 -3.3174,0.3212 -2.2146,0.1908 -2.5537,-0.0162 -2.8193,0.9143 -0.6888,2.4127 -2.0743,5.8224 -3.0626,8.0562l3.0523 0.05 1.4405 -4.1863c0.5607,0.4276 1.5495,3.709 1.8954,4.5719l2.7475 -0.001c-0.0582,-0.9649 -1.3531,-3.0744 -1.5671,-4.3719zm-14.1239 2.9688c0.1561,-1.168 0.3359,-1.853 1.5,-1.9978 0.7969,-0.099 2.336,-0.5061 3.0164,-0.2462 0.6594,1.9649 -3.4779,2.235 -4.5164,2.244zm1.5895 -3.7358c0.0956,-1.046 0.3694,-1.2291 1.3361,-1.3581 0.4908,-0.0655 2.1279,-0.4011 2.4127,-0.1154 0.2296,0.2303 0.0646,0.754 -0.1296,0.9622 -0.3558,0.3813 -3.134,0.5339 -3.6192,0.5113zm5.8149 0.1235c0.4477,-0.4974 0.7711,-1.3771 0.9504,-2.0159 0.4666,-1.6618 -0.2974,-1.9653 -1.7964,-1.8058 -2.1356,0.2273 -4.8448,0.6189 -6.9728,0.9934 -0.6126,1.0512 -3.5435,8.596 -3.7495,9.7132 2.5146,-0.4981 4.9856,-0.9585 7.508,-1.4141 1.2787,-0.231 2.1271,-0.4608 2.8251,-1.5792 0.5026,-0.8053 1.2177,-2.4863 0.7124,-3.3552l0.5228 -0.5364zm61.2278 -4.1204c-1.7277,-0.2931 -3.6207,-0.4077 -5.3787,-0.6142 -1.7993,-0.2115 -4.0539,-0.2997 -3.8684,2.1256 0.379,4.9542 6.7661,0.9865 6.9832,4.9382l-8.0138 -0.8923c0.1791,0.8369 0.86,1.9292 1.3604,2.6278 0.4254,0.5939 2.2354,0.5871 3.001,0.679 2.1534,0.2585 4.602,0.9239 6.4378,-0.4628 1.6589,-1.253 1.5725,-4.4195 -0.2633,-5.1336 -2.432,-0.9461 -5.9985,0.0914 -5.5961,-1.7263 1.3721,-0.2127 3.7254,0.6674 5.1686,0.4476l-0.4288 -1.6288 0.5981 -0.3602zm-23.9275 0.8612l4.9947 0.3036 0.1895 6.4854 3.013 0.2222 -0.0784 -3.7059c0.6362,0.2765 3.0878,4.1272 4.0137,4.3438 0.5342,0.1249 1.9615,0.1993 2.5877,0.2499 -0.1802,-0.6809 -0.8269,-1.5846 -1.2438,-2.173 -0.4655,-0.6569 -1.2072,-1.2617 -1.5402,-1.8472 0.9195,0.0437 1.9274,0.257 2.1867,-0.8406 0.1535,-0.6498 -0.1307,-1.9454 -0.3569,-2.5781 -0.6617,-1.8513 -2.1362,-1.8755 -3.9361,-2.0163 -2.2948,-0.1796 -9.3825,-0.6887 -11.3352,-0.6622 -1.3333,1.4203 -1.4213,6.6606 -1.3906,8.6993l7.6484 0.2892 -0.0081 -2.1486 -4.8818 -0.101 0.1985 -1.5233 3.1994 0.0803 -0.2008 -1.7748 -3.0632 -0.2072 0.0035 -1.0955z"/>
  <path class="fil3" d="M128.3044 149.7541l-0.6873 0.4772c0.8208,0.4329 2.8907,0.1799 3.3907,1.1866l-1.2368 -0.0225c0.7983,1.1594 2.3424,4.4703 1.076,5.658 -0.2439,0.2287 -1.9582,1.0592 -2.4651,1.3686 -0.8131,0.4963 -1.7553,0.8736 -2.7075,0.8374 1.1005,-0.1432 2.1646,-0.8955 3.1307,-1.5449 0.5775,-0.3882 2.3575,-1.2197 1.5064,-3.1454 -0.1536,0.1798 0.0642,0.5008 -0.4009,-0.2296 -0.8419,-1.3221 -1.4106,-2.2794 -3.1067,-3.0724 0.7068,1.0378 1.5209,2.9405 1.2113,4.2103 -0.2689,1.1033 -1.7495,1.8905 -2.6304,2.4955 0.6166,-0.1969 2.2676,-2.1996 1.9111,-3.0772 -0.7421,0.1646 -1.1417,1.5175 -3.2883,2.7062 -1.2231,0.6773 -3.2087,1.1804 -4.6066,1.252 1.2773,-0.4957 2.8483,-0.7698 3.9864,-1.7176 0.9437,-0.7859 2.2585,-2.0138 2.1694,-3.441 -0.8331,0.2577 -1.1266,0.7835 -1.7362,1.3098 -1.5916,1.3745 -5.2793,2.4457 -6.0352,3.0602 1.1175,-0.3489 2.2897,-0.5529 3.3351,-1.0782 0.8338,-0.4189 2.0866,-1.3023 2.8333,-1.5606 -0.8785,1.7491 -6.4314,3.3765 -7.3793,3.4189l0.1821 -0.2532 -0.8303 0.5589c4.4496,0.3837 6.261,1.8364 9.5206,1.813 2.4019,-0.0173 7.5901,-2.5123 9.199,-1.3879 -1.4823,1.3234 -4.1354,1.3371 -7.0218,3.2787 1.5715,-0.5801 3.1476,-1.3753 4.7634,-1.747 -1.2553,0.577 -2.4424,1.0362 -3.739,1.6969 -2.9305,1.4932 -2.9481,1.0529 -4.0143,1.5161l0.67 0.8426c1.1882,-0.3453 7.5217,-3.767 9.4367,-4.3862 -0.3412,0.8023 -2.8943,1.957 -3.7396,2.4956l2.2696 -0.6285c0.1575,0.5404 -0.5538,-0.4694 0,0.4171 0.9897,0.1743 2.5821,0.3789 3.3027,-0.4389 -0.2809,-0.2906 -0.0763,-0.2311 0.0141,-0.773 0.155,-0.9298 -0.6696,-2.3683 -0.6697,-2.3703 0.2594,-0.7929 1.8111,-2.7193 0.9065,-3.4388 -0.7091,-0.3012 -0.7249,0.8955 -1.1219,0.6944 -0.9302,1.119 -1.524,1.0899 -3.0995,1.2404 -0.0013,0.1088 0.0431,0.4069 0.0415,0.4269 -0.0336,0.4064 0.1296,0.081 -0.1322,0.3837 -0.309,-0.4377 -0.4505,-0.8817 -0.6792,-1.1664 -0.2077,0.3145 -0.8229,0.9068 -1.1928,0.9612 0.2497,-0.6218 0.9683,-1.2267 1.3527,-1.944 0.336,-0.6271 0.6199,-2.0046 1.1065,-2.3242 0.6919,-0.298 1.5048,0.3162 1.5482,1.0521 0.049,0.8302 -0.5858,1.3354 -0.8539,2.0457 1.8518,-0.4535 1.358,-0.5964 2.0437,-1.8611 -0.3241,-2.2089 -2.134,-1.5188 -2.5617,-2.3371 -0.5397,-0.8728 0.5048,-2.3366 -1.1441,-3.2714 -1.007,-0.5708 -2.6744,-0.2285 -3.8274,-0.1866z"/>
  <path class="fil3" d="M100.1902 164.383c0.8908,-0.0488 3.2283,-0.1203 3.8365,0.4456 0.3701,1.8456 -2.7836,1.1965 -3.9333,1.0606l0.0968 -1.5062zm2.6399 -3.2231c0.6927,0.0337 1.8707,-0.0634 1.8569,0.8854 -0.0136,0.943 -1.4222,0.5989 -2.1448,0.5611 -0.7923,-0.0416 -1.6207,-0.0258 -2.4043,-0.1643l0.0271 -1.2373c0.8104,-0.2138 1.8212,-0.0861 2.6651,-0.0449zm3.8489 2.3621c1.0341,-0.1415 2.0615,-0.2322 2.0919,-1.495 0.0217,-0.9033 -0.791,-1.573 -1.5792,-1.8227 -1.1548,-0.3659 -8.92,-0.6341 -9.9492,-0.371 -1.3379,0.3421 -1.1779,1.0385 -1.2767,2.1971l-0.7746 6.0785c1.714,0.0158 3.3501,-0.0336 5.0769,0.0501 1.5091,0.0732 3.2321,0.3565 4.6982,0.2889 3.6455,-0.1683 4.675,-3.84 1.7127,-4.9259z"/>
  <path class="fil3" d="M115.0613 162.249c0.4663,0.5072 1.7721,2.1895 1.3902,2.7499 -0.4615,0.3784 -1.4784,0.2624 -2.1565,0.2061l0.7663 -2.956zm9.2478 7.288l0 -0.0976c-0.166,-0.8105 -3.4287,-4.1219 -3.6718,-5.1297l-0.3228 -0.604c-1.0389,-0.5212 -0.8791,0.0693 -1.8124,-0.9761 -0.3612,-0.4045 -1.079,-0.9612 -1.2918,-1.4235l3.8073 1.0742c-1.0074,-1.0065 -2.5057,-1.3673 -3.909,-1.5476 -1.3426,-0.1726 -3.5185,-0.6129 -4.792,-0.542 -0.6377,1.4426 -3.9995,6.2376 -4.3485,8.309l4.8718 0.1736 0.6565 -1.2814c1.307,-0.0317 2.9168,0.1758 4.2468,0.2846 2.3801,0.1947 1.2859,0.5442 2.582,1.771l3.9839 -0.0105z"/>
  <path class="fil3" d="M91.1783 159.4782c-0.6534,4.0611 -0.2013,6.0555 -2.7145,6.1903 -1.9395,0.1041 -2.2832,-0.3845 -1.991,-2.1964 0.2019,-1.2518 0.5084,-2.6355 0.6028,-3.8839 -0.888,-0.0415 -3.7431,-0.1981 -4.3017,0.2053 -0.4283,0.7258 -0.8285,6.1348 -0.4589,6.9677 0.8315,1.874 4.4333,1.1937 6.1432,1.119 5.6554,-0.2469 6.4474,-0.1724 6.6823,-8.419l-3.9622 0.017z"/>
  <path class="fil0" d="M120.1161 123.0216c0.4127,-0.0117 0.5493,-0.0207 0.9071,0.3251 0.2594,0.2508 -0.0331,0.4404 -0.115,0.658 1.0484,0.082 1.1151,0.1584 1.879,0.696 0.7636,0.5374 1.3843,0.5346 1.4599,1.4318 0.1972,0.2672 0.4363,0.4859 0.643,0.7517 0.3658,0.4701 0.3075,0.6387 0.5564,1.0253 1.5214,-0.464 3.0917,-0.9116 4.6614,-1.312 1.137,-0.29 4.1291,-0.7562 4.8895,-1.254 -2.568,0.0123 -3.7604,-0.4935 -6.0244,-1.554 -1.8103,-0.8479 -3.4756,-1.5259 -5.3616,-2.1801 -3.4491,-1.1961 -9.1222,-2.2077 -12.7629,-2.1534 0.4104,0.5698 2.9789,2.4978 3.6507,2.72 0.8483,0.2805 2.0657,0.1065 3.0352,0.2863 0.7358,0.1365 1.9754,0.6848 2.5817,0.5593z"/>
  <path class="fil0" d="M62.9471 114.1065c0,0.5744 0.7043,1.1373 0.6574,1.8718 0.0091,-0.5332 -1.0727,-1.5117 -1.6832,-1.5482l0.3714 0.8332 -0.6787 -0.5797 0.0555 0.6798c0.0557,1.2133 0.4781,1.8712 0.2347,3.3751 -0.2069,1.2787 -0.7465,1.8243 -0.9669,2.6773 1.2007,-2.7194 0.5819,-6.6516 -1.1914,-6.8737l0.1473 0.6751 0.0956 -0.3215c1.0049,2.1484 0.1498,6.4989 -0.8204,8.4703 -0.3639,0.7395 -0.9803,1.3702 -1.3582,2.0658l3.1435 -2.8492c0.8764,-0.7076 2.2384,-2.1456 3.0227,-3.0932 1.0878,-1.3145 5.1295,-5.5811 5.6046,-6.677 -0.5469,-0.4832 -1.5207,-0.9835 -2.2581,-1.0557 -0.7645,-0.0256 -1.4881,-0.5329 -2.2488,-0.7549 -0.7798,-0.2276 -1.6034,-0.4026 -2.4007,-0.5942 -1.6896,-0.4062 -3.2176,-0.3483 -4.9205,-0.9352l0.7693 1.2534c1.7178,0.298 1.8541,-0.3385 4.9218,0.646 0.9089,0.2918 3.5583,0.963 3.967,1.7252 -0.468,0.1504 -1.625,0.1469 -2.3552,0.3291 -0.5514,0.1375 -1.6335,0.4287 -2.1087,0.6804z"/>
  <path class="fil0" d="M93.1693 97.3211l0.1937 0.0262c-4.9623,2.353 -8.9397,5.1757 -13.0939,8.5486 -1.8751,1.5225 -10.3532,9.3329 -10.9223,10.7609l4.996 -2.3098c4.1285,-1.7977 8.7635,-8.3387 11.5031,-10.1584 -1.4916,0.1017 -6.3601,4.4634 -7.6831,5.5495 1.4913,-1.8022 9.6548,-8.4663 12.2527,-10.1966 0.6799,-0.4528 4.538,-2.6467 4.6953,-2.8966 -0.6093,0.1455 -1.4926,0.2621 -1.9415,0.6762z"/>
  <path class="fil2" d="M131.9368 130.3596c0.2085,-0.6785 1.1187,-1.5583 1.8256,-1.2294 0.175,0.501 0.1209,0.6088 0.0112,1.1336 -0.9911,0.0498 0.3948,-0.2797 -1.8368,0.0958zm-8.5426 1.7361l-0.7909 1.7548c1.4446,0.5396 1.8903,1.1175 3.6927,1.2935 1.5128,0.1477 2.9128,-0.1054 4.2237,-0.7656 1.9645,-0.9894 4.5059,-2.674 4.9933,-4.9011 0.1183,-1.5306 -1.0817,-1.1727 -2.8222,-0.6009 -1.1005,0.3616 -2.0508,0.6594 -3.1862,0.9638 -2.6908,0.7214 -5.6079,2.1268 -6.1104,2.2555z"/>
  <path class="fil4" d="M86.4377 151.6149l0.6708 2.2462 1.9009 -3.0608c0.4986,0.905 0.617,2.8501 1.4405,3.3537 1.2742,-0.4742 1.6463,-3.427 1.8242,-4.6459 1.3136,0.7352 2.0316,3.0772 2.8796,3.7263 0.7558,-1.8873 0.3718,-2.2032 0.2849,-4.0196 1.5391,0.3605 2.7542,2.5233 3.0402,4.0434 1.0223,-1.2999 0.8132,-1.2812 1.5027,-2.6102 1.213,0.6233 1.571,2.3345 1.9095,3.522 1.1751,-1.4454 0.9017,-1.1022 0.4813,-2.7998 -0.4746,-0.4235 -0.9544,-1.907 -1.9478,-2.0548 -0.7764,-0.1177 -1.0879,-0.3948 -1.9208,-0.5623 -1.7058,-0.3432 -4.3958,-1.121 -5.9782,-0.7982 0.2782,0.4096 0.5384,-0.1194 0.8162,0.7442 -1.6925,0.136 -2.727,0.0027 -4.3495,0.4485 -0.955,0.2624 -2.5979,1.3105 -2.5545,2.4673z"/>
  <path class="fil5" d="M120.2655 149.8661c0.0025,-0.0261 0.8644,-2.5086 0.9062,-2.6098 0.4534,0.7043 0.6507,1.4116 0.609,2.2628 -0.4078,0.2826 -0.9632,0.3495 -1.5152,0.347zm0.1583 -3.545c0.7465,-0.0341 1.7747,-0.1439 2.3927,0.1356 0.2491,1.1651 -0.5099,1.9449 -0.6426,2.2256 -0.0758,-1.5811 -1.2001,-1.6862 -1.7501,-2.3612zm-25.3859 -7.6044c0.5296,0.2085 1.0269,0.308 1.5731,0.5205 0.8091,0.3147 0.7553,0.5157 1.1765,0.7401 0.4688,0.1126 0.0573,-0.314 0.489,0.3437 0.2887,-0.2067 0.8293,0.2012 1.25,0.4106 0.4344,0.2162 0.9565,0.4107 1.4554,0.5875l-0.0438 0.4055 0.6602 0.2515c0.4464,-0.3332 0.6521,-0.0124 1.2749,0.2444 0.4042,0.1666 1.0061,0.3263 1.3419,0.5035 0.3519,-0.175 0.4928,-0.2217 0.7885,0.1191 0.6073,0.1932 2.1231,0.1189 2.2156,0.7842 0.2949,-0.6763 -0.1506,-0.199 0.5486,-0.4834l-0.1201 1.7977c0.2426,-0.443 0.1537,-1.1319 0.1711,-1.7022l1.6609 0.0121c0.2248,-0.1 0.3376,-0.088 0.5798,0.1297 0.3008,-0.3958 0.805,-0.4384 1.3673,-0.5198l-0.5548 1.0252c0.4132,0.0735 0.2707,-0.1078 0.4706,0.0852 -0.0357,0.0584 -0.0599,0.0993 -0.078,0.19 -0.0125,0.0628 -0.1403,0.1702 -0.172,0.2054 0.2393,0.5534 -0.0289,1.2812 0.2905,1.8732 0.0092,-0.6621 -0.2425,-0.9853 0.2495,-1.2832 0.0032,0.2299 -0.0103,0.6648 0.0152,0.8744 0.0943,0.7736 -0.0628,0.369 0.283,0.6863 0.0002,-0.8787 -0.0748,-1.6684 -0.0317,-2.5537 0.034,-0.6959 -0.1826,-1.8246 0.5153,-1.8986 0.1994,1.3222 -0.73,5.5505 0.8744,6.9239 0.8308,0.7113 0.7818,1.1912 1.9449,0.9974 0.1959,-0.5536 1.0922,-1.2925 1.5353,-1.7416 0.1665,0.6296 0.2511,1.2144 0.0587,1.8319 0.2329,0.4941 -0.0361,0.1795 0.3821,0.2252 0.5999,0.0655 0.1819,0.1018 0.4472,-0.1533 0.1948,-0.3482 0.4069,-0.637 0.6093,-0.9864 0.2628,-0.4535 0.284,-0.7319 0.6361,-0.9442 0.5646,0.3853 0.6317,1.0696 0.4739,1.7178 0.093,0.1806 -0.0701,0.4959 1.2351,0.2361 1.3164,-0.262 3.3501,-0.4106 3.7962,-0.6619l-0.0218 -0.0874 -2.1584 0.1922c0.5256,-1.2719 0.9667,-1.2947 1.0311,-2.9076l0.1301 -0.2177c0.3541,-0.33 0.7148,-0.222 1.1581,-0.0851 0.8035,0.248 0.9728,0.4123 0.7363,1.4286 1.0694,-1.4113 -1.1684,-2.3056 -2.3882,-2.3647 -2.8158,-0.1366 -2.126,0.4151 -2.7148,0.555 -0.6736,0.036 -2.4021,-0.6823 -2.69,0.0808 3.8078,-0.2516 3.5766,1.9811 2.4082,2.9605 -0.3053,-0.5909 -0.4799,-1.2054 -1.1381,-1.4496 -0.4335,0.1973 -1.1901,1.3286 -1.3163,1.675l-0.4886 -1.7632c-0.662,0.0096 -0.9783,0.2883 -1.1832,0.8671 -0.0451,-0.7271 -0.1157,-0.6001 -0.2808,-1.1509l0.4079 -0.429c-0.5769,0.18 -0.5193,0.1667 -0.7876,0.7498 0.1114,0.4211 -0.4559,0.7685 -0.7851,1.1069l1.0166 -0.429c0.0486,0.6874 -0.2395,0.9493 -0.8507,1.2083 -0.4718,-0.2731 -0.7833,-0.5945 -0.9866,-1.1083l0.9248 -0.4567c-0.5494,-0.1329 -0.3171,0.1225 -0.3619,-0.3247l-0.8655 0.4878c-0.1885,-0.601 -0.0723,-0.2938 0.2743,-0.7798 -0.1153,-0.3658 -0.2977,0.0301 -0.3508,-0.1611 -0.0083,-0.0298 -0.0585,-0.0027 -0.0815,-0.0184l-0.2137 0.144 0.03 -0.887 -0.2838 -0.0494c0.4969,-0.4478 0.3887,-0.2076 0.6177,-0.7934l-0.5614 -0.165c-0.3033,-0.2586 0.124,-2.2225 0.1336,-3.1357 0.0051,-0.4826 -0.0814,-0.4374 -0.4092,-0.6906 -0.6394,0.2303 -0.0876,0.3398 -0.9556,0.5357l-3.7449 0.18c-4.3902,-0.1131 -10.3944,-4.4385 -12.671,-4.4408l-0.5508 0.1355c-0.0327,-0.0436 -0.1011,0.0406 -0.1443,0.0729 0.2219,0.5336 0.1911,0.3998 0.7462,0.7212z"/>
  <path class="fil6" d="M67.2826 159.0518c1.38,-0.0789 0.9449,-0.0484 1.7086,-0.9807 0.344,-0.42 0.7789,-0.8998 1.1354,-1.2853 0.9098,-0.9834 0.9603,-1.7907 1.8299,-2.7185 1.1574,-1.2348 3.859,-3.9559 4.551,-5.258 -1.7909,1.023 -2.7365,1.7326 -4.7902,2.5829 -1.0699,0.4429 -4.3221,1.6466 -5.3199,1.8205l-0.0305 1.146 -0.3591 -0.7057c-0.587,0.456 -1.7629,2.4046 -0.3354,1.7031l2.999 -2.0991c-1.1797,0.9248 -2.1966,1.9669 -3.3102,2.8942 -0.9675,0.8057 -2.35,1.5701 -2.8887,3.5432 2.3249,-0.6913 8.2591,-6.9566 8.9342,-7.3359 -0.4519,1.6559 -3.3468,4.1237 -4.7259,5.2548 -0.602,0.4937 -1.5483,0.9466 -1.5447,1.746 1.2326,0.0039 1.8053,-0.4332 2.651,-1.1991 0.4571,-0.4139 1.7036,-1.4031 1.9448,-1.8334 -0.8682,0.9719 -2.2377,2.1633 -2.4493,2.725z"/>
  <path class="fil2" d="M61.2387 124.2967c0.5987,-0.0124 0.3632,-0.0687 0.9455,-0.3079l0.0926 -0.0143c0.6123,-1.0007 4.6466,-3.4521 5.8469,-4.2044 6.5451,-4.1023 16.4321,-6.5868 24.1623,-5.2682 4.6812,0.7985 10.6435,2.9969 14.6246,5.6015 1.8802,1.23 3.9565,2.913 5.8513,4.2517 3.4545,2.4408 4.2521,2.153 6.6518,3.4704 -0.5114,0.3273 -7.2793,-1.4263 -9.0316,-0.1808l0.3758 -0.0421c3.7791,-0.1421 7.5197,1.2135 11.5869,0.8703l0.2824 -0.2421c-10.895,-2.0864 -13.4651,-10.9802 -29.3591,-13.9582 -6.9013,-1.2931 -12.0516,-0.5485 -18.5669,1.8513 -4.1144,1.5155 -10.4565,4.9994 -13.4625,8.1728z"/>
  <path class="fil2" d="M108.0298 146.95c0.7658,0.6039 1.4185,2.2819 2.6301,2.9791 0.5511,0.3172 1.137,0.7247 1.7529,1.0761 0.6443,0.3677 1.4398,0.6145 1.8394,1.1207l2.7859 0.4154 -1.7775 0.0678c-0.5066,0.3363 -1.4705,0.0812 -2.102,0.2742 1.2038,0.9739 5.3652,0.8177 6.92,0.4835 1.1361,-0.2442 1.8471,-0.4932 2.9268,-0.8935 1.7818,-0.6608 1.6505,-0.5016 2.5986,-0.8122 0.3111,-0.1019 0.2243,-0.0387 0.4289,-0.2091 -1.0712,-1.0135 -4.0097,-0.3978 -5.4207,-0.2452 -4.1869,0.4529 -3.7435,-0.0377 -5.9521,0.0642 0.6223,0.429 0.3534,0.2164 0.259,0.3435 -1.2922,-0.5971 -1.7507,-0.7101 -2.53,-1.9832 -0.5529,-0.9033 -1.0403,-2.3279 -1.006,-3.3909 -0.3194,-0.592 -0.0512,-1.3198 -0.2905,-1.8732 -0.9075,1.332 -1.8648,1.6371 -3.0628,2.5828z"/>
  <path class="fil7" d="M98.9446 132.3584c-0.2252,0.7294 -0.1255,0.1211 0.3249,0.3721l-0.1971 -1.1236c2.7607,0.0268 5.5955,0.9118 8.5913,0.9291 1.5716,0.0091 7.8285,-1.0642 8.6659,-0.642l0.363 -0.0362c0.2299,-0.1318 3.1845,-0.1135 3.4149,-0.0303 0.3279,-0.2684 0.476,-0.6394 0.6135,-1.0966 -3.3984,0.249 -5.807,0.3499 -9.2249,-0.1207 -3.4672,-0.4774 -5.9299,-0.566 -9.4107,-0.1461l1.851 0.9047c-1.1127,-0.102 -3.8822,-0.2436 -4.8945,0.0067l-0.0973 0.9829z"/>
  <path class="fil8" d="M108.6869 157.4699c-0.6331,0.3142 -0.8353,0.5402 -1.5696,0.7103l0.1083 -0.4099c-1.2952,0.4431 -1.1556,0.9741 -2.7754,0.7002 -0.8444,-0.1428 -2.1807,-0.1999 -2.9049,-0.5586l0.8483 0.043c-0.8668,-0.6902 -14.2059,-0.5645 -16.2065,-0.4003 -1.9149,0.1571 -6.4656,0.5313 -8.1247,-0.0643 -1.7566,-0.6306 -3.2472,-3.2907 -3.5454,-5.0501 1.9671,-1.6373 3.2449,-3.8201 4.186,-6.0504 -0.2313,-0.1238 -0.2264,-0.0598 -0.265,-0.0769 -0.3602,-0.1588 0.2722,0.3626 -0.2439,-0.1485 -0.8891,1.2244 -1.308,2.9074 -2.4201,4.3385 -1.3692,1.7621 -2.208,2.0964 -0.9054,4.3414 0.5781,0.9964 1.9033,3.561 3.0538,3.6652 1.6806,0.1523 4.6888,-0.0118 6.4016,-0.2118 1.7167,-0.2005 4.4823,-0.1931 6.2682,-0.1869 2.1694,0.0076 4.373,0.1153 6.5498,0.1577 2.0435,0.0397 4.0724,0.2069 6.1166,0.2728 1.1219,0.0361 2.1475,0.0062 3.2706,0.0902 0.9841,0.0735 1.8845,-0.1056 2.1577,-1.1616z"/>
  <path class="fil9" d="M75.9777 147.8641l0.0022 -0.1727c-2.011,0.0014 -3.2035,-1.5779 -4.7155,-2.604 -1.3807,-0.937 -3.7098,-1.7438 -5.3669,-1.9467 -0.2466,1.1679 -0.3329,3.8691 -0.1475,5.0509 0.9624,-0.1291 2.7791,-3.3496 6.9171,0.6196 1.1487,-0.2197 2.087,-0.9763 3.3106,-0.9471z"/>
  <path class="fil7" d="M78.3869 141.4094l0.1352 -0.2594c2.5641,-5.7943 8.4004,-10.5226 15.3252,-9.3549 -0.2579,-0.235 -0.1595,-0.1763 -0.5657,-0.3132 -1.2622,-0.4254 -3.9634,-0.728 -5.2544,-0.5962 -4.3053,0.4393 -9.4777,5.3565 -9.6403,10.5237z"/>
  <path class="fil10" d="M80.6722 153.3065c0.893,0.9453 0.9809,1.7732 2.4807,2.3876 4.2724,1.7503 7.2593,-1.5076 12.4183,-1.4775 3.5867,0.0209 4.7395,1.135 7.8019,2.1647 5.2163,1.754 6.4148,-2.5829 4.7173,-3.3714 -0.5075,0.7618 0.1338,1.0033 -0.9315,2.1275 -0.4464,0.4711 -1.0368,1.2463 -1.6245,0.9182 -0.5233,-0.0947 -0.924,-0.1311 -1.2825,-0.4171 -0.4827,0.2253 -0.0797,0.2081 -0.4705,-0.0123l-1.9219 -0.6606c-0.8475,0.1513 -0.4026,0.0695 -0.6476,-0.2136 -0.9187,-0.2216 -1.548,-0.6246 -2.6703,-0.7925 -0.2512,0.027 -1.3675,0.1603 -0.7986,-0.2113l-0.7161 -0.115c-0.4939,0.3457 -1.4508,0.109 -2.1442,0.1554 -1.1224,0.0752 -2.4572,0.4116 -3.5364,0.7381 -0.9442,0.2856 -1.14,0.5363 -1.6302,0.2563 -0.9657,0.2537 -2.1806,0.6841 -3.1809,0.6371 -0.1376,0.169 0.0305,0.4908 -1.2047,0.2562 -3.8299,-0.7274 -3.9274,-3.1511 -4.9318,-3.6553l0.2735 1.2855z"/>
  <path class="fil2" d="M44.3418 154.0625c0.6626,-0.8028 -0.1163,-1.476 2.3044,-1.9576 1.4884,-0.2961 2.2961,0.1203 2.7694,-1.4916 0.5976,-2.0355 1.2079,-4.2676 2.9358,-5.6223 1.1709,-0.9179 1.7044,-0.4231 3.0021,0.0685 3.0938,1.172 5.5482,2.9424 8.1357,4.7663 0.0967,-0.389 -0.6923,-0.8894 -1.1328,-1.236 -1.8309,-1.4412 -1.9133,-1.664 -4.2959,-2.9571 -5.9053,-3.2049 -4.9612,-1.3753 -6.792,-0.4645 -0.4473,-1.2692 -1.7046,-2.4838 -3.1068,-2.5228 1.0641,1.6219 2.7653,2.8061 1.4239,6.4105 -1.23,3.3052 -4.0722,1.5225 -5.3862,3.3096 -0.1066,0.7603 0.0326,0.9957 0.1424,1.697z"/>
  <path class="fil11" d="M122.3448 128.4729c-4.0672,0.3432 -7.8078,-1.0124 -11.5869,-0.8703 -0.5615,0.28 -5.5647,0.0782 -6.7488,0.1795 0.7837,0.4899 2.394,0.2902 3.3703,0.3089 2.9011,0.0558 4.3189,0.4884 6.8949,0.7614 0.9789,0.1037 2.7525,-0.0757 3.5252,0.3335 -1.9378,0.0581 -3.87,-0.0241 -5.7838,-0.2945 -1.0878,-0.1538 -4.6385,-0.5036 -5.4931,-0.1499 2.0076,0.4208 14.8626,2.0513 15.8222,-0.2686z"/>
  <path class="fil7" d="M123.3942 132.0957c0.5025,-0.1287 3.4196,-1.5341 6.1104,-2.2555 1.1354,-0.3044 2.0857,-0.6022 3.1862,-0.9638 1.7405,-0.5718 2.9405,-0.9297 2.8222,0.6009 0.4827,-0.4383 0.8046,-1.1649 0.7009,-1.8265 -1.8047,-1.1568 -8.3281,1.0289 -10.6587,2.0484 -1.9757,0.8641 -1.4247,0.4329 -2.161,2.3965z"/>
  <path class="fil12" d="M69.3468 116.6568c0.5691,-1.428 9.0472,-9.2384 10.9223,-10.7609 4.1542,-3.3729 8.1316,-6.1956 13.0939,-8.5486l-0.1937 -0.0262c-3.7878,0.8756 -11.0875,6.0506 -14.0318,8.5892 -1.9249,1.6596 -4.0229,3.6428 -5.7655,5.4738 -0.8641,0.908 -1.9103,2.0299 -2.6826,3.0078 -0.7211,0.9131 -2.0206,2.2212 -2.5725,3.1445l1.2299 -0.8796z"/>
  <path class="fil0" d="M61.2387 124.2967c-0.7858,0.2069 -2.8546,2.4031 -3.4415,3.0958 -3.1249,3.6879 -4.6891,10.6408 -4.3917,15.0793 -0.138,-1.1107 0.6222,-4.4298 0.9616,-5.6877 1.0101,-3.7444 3.7534,-7.8363 6.2352,-10.8589 0.4986,-0.6073 1.4107,-1.2208 1.5819,-1.9364 -0.5823,0.2392 -0.3468,0.2955 -0.9455,0.3079z"/>
  <path class="fil13" d="M83.2999 150.9434c0.0333,0.8279 0.1439,1.1106 0.5444,1.7059l0.0314 -0.6077c0.4955,-0.277 0.2311,-0.603 1.2845,-0.9193 0.2083,0.2766 0.2512,0.2249 0.4806,0.6168l0.2357 -0.6307c0.2829,0.1259 0.3751,0.2988 0.5612,0.5065 -0.0434,-1.1568 1.5995,-2.2049 2.5545,-2.4673 1.6225,-0.4458 2.657,-0.3125 4.3495,-0.4485 -0.2778,-0.8636 -0.538,-0.3346 -0.8162,-0.7442 1.5824,-0.3228 4.2724,0.455 5.9782,0.7982 0.8329,0.1675 1.1444,0.4446 1.9208,0.5623 -0.5377,-1.1635 -2.5796,-1.9325 -3.8507,-2.0031 -5.0476,-0.2803 -4.8294,0.8481 -5.9902,1.0929 -0.7846,0.1654 -1.4781,-0.0393 -3.6136,0.6111 -0.9689,0.2952 -3.1712,1.0599 -3.6701,1.9271z"/>
  <path class="fil6" d="M109.2149 153.3872c0.2927,1.0126 0.2154,1.3956 1.1967,1.8582l-0.7722 -0.0478 0.0503 1.6959c1.2381,0.2555 3.687,-0.1223 4.5573,0.5008 -1.0591,0.2805 -2.877,0.0323 -4.0112,-0.0237l2.2648 1.212c0.9337,-0.4533 1.0883,-1.1412 2.4435,-1.1048l-1.3898 0.9857c0.8632,0.0769 0.891,-0.2722 1.4607,-0.7355 0.4932,-0.401 0.8721,-0.4685 1.3423,-0.9501l-6.067 -0.2159c0.6389,0.0792 2.5438,-0.08 3.3484,-0.1073 0.9669,-0.0328 2.5854,0.2814 3.3822,-0.1388 -0.1726,-0.136 -3.3672,-1.038 -4.0499,-1.3088 -1.0784,-0.4276 -2.7826,-1.3475 -3.7561,-1.6199z"/>
  <path class="fil2" d="M128.3044 149.7541c1.153,-0.0419 2.8204,-0.3842 3.8274,0.1866 1.6489,0.9348 0.6044,2.3986 1.1441,3.2714 0.4277,0.8183 2.2376,0.1282 2.5617,2.3371l-0.135 1.1857c0.397,0.2011 0.4128,-0.9956 1.1219,-0.6944 0.9046,0.7195 -0.6471,2.6459 -0.9065,3.4388 0.0001,0.002 0.8247,1.4405 0.6697,2.3703 -0.0904,0.5419 -0.295,0.4824 -0.0141,0.773 0.5059,-0.3129 0.8758,-0.9775 0.9434,-1.6079 0.1046,-0.9771 -0.3206,-0.9706 -0.9824,-1.3978 0.1688,-1.0737 2.4431,-2.669 1.1998,-4.6044 -0.7872,-1.2255 -2.9096,-1.8442 -4.3321,-1.903 0.2448,-1.4026 1.0257,-3.2672 -0.7656,-4.0948 -1.2364,-0.5713 -3.2171,0.197 -4.3323,0.7394z"/>
  <path class="fil8" d="M118.5571 155.2709l-0.0371 -1.0561 0.6023 -0.0883c0.282,-0.3106 -0.0212,-0.2539 1.0023,-0.3989 0.3398,-0.0481 0.6253,-0.1009 0.9589,-0.1822l3.647 -1.1817c1.3765,-0.5351 1.5984,-0.4243 1.3024,-0.9117 -0.2046,0.1704 -0.1178,0.1072 -0.4289,0.2091 -0.9481,0.3106 -0.8168,0.1514 -2.5986,0.8122 -1.0797,0.4003 -1.7907,0.6493 -2.9268,0.8935 -1.5548,0.3342 -5.7162,0.4904 -6.92,-0.4835 0.6315,-0.193 1.5954,0.0621 2.102,-0.2742 -2.3306,-0.1015 -4.3854,0.1554 -6.4886,-1.0673 -2.7636,-1.6065 -3.3201,-3.039 -4.2137,-3.415 0.025,0.9467 0.6719,2.1889 1.4791,2.69l-0.5648 -0.8725c0.6491,0.2877 1.3119,1.375 4.9463,2.804 1.7025,0.6695 3.8244,1.9064 5.6197,1.869 -0.4521,-0.2631 -0.4791,-0.1996 -0.684,-0.7414 0.735,0.2072 0.1256,0.6555 3.2025,1.395z"/>
  <path class="fil2" d="M110.8485 119.456c3.6407,-0.0543 9.3138,0.9573 12.7629,2.1534 1.886,0.6542 3.5513,1.3322 5.3616,2.1801 2.264,1.0605 3.4564,1.5663 6.0244,1.554 0.5151,0.0056 0.6304,0.0194 0.9612,-0.3055 -0.8011,-0.4811 -4.8137,-1.3115 -6.0986,-1.6977 -6.1496,-1.848 -12.4832,-4.6105 -19.6802,-4.168 0.3538,0.3254 0.1256,0.2309 0.6687,0.2837z"/>
  <path class="fil7" d="M114.2522 152.1259c-0.3996,-0.5062 -1.1951,-0.753 -1.8394,-1.1207 -0.6159,-0.3514 -1.2018,-0.7589 -1.7529,-1.0761 -1.2116,-0.6972 -1.8643,-2.3752 -2.6301,-2.9791 -0.538,0.1436 -0.9119,0.4422 -1.0705,-0.1361 -0.6873,0.4376 -0.6829,0.5095 -1.497,0.7513 0.9775,1.437 3.5968,4.1226 5.6224,4.2163 -0.7,-0.4167 -1.9028,-1.1096 -2.1324,-1.9819 1.5951,0.9822 3.3122,2.1188 5.2999,2.3263z"/>
  <path class="fil10" d="M111.9308 146.5179c-0.1239,1.1371 1.1138,3.2871 2.3294,3.8057 3.0562,1.3041 8.6045,-0.2475 11.3384,-0.2985 1.6407,-0.0306 2.9495,-1.539 3.0552,-2.2879 0.1104,-0.7822 0.0386,-0.2896 -0.1011,-0.4887 -0.5919,0.3676 -0.4983,0.5775 -0.8891,1.0847 -0.3646,0.4732 -0.5439,0.2824 -0.9616,0.8802l-0.2951 -0.1715 -1.3642 0.2765 -0.6351 0.1921c-0.4461,0.2513 -2.4798,0.3999 -3.7962,0.6619 -1.3052,0.2598 -1.1421,-0.0555 -1.2351,-0.2361 -0.3656,0.274 -1.2893,0.2973 -1.7193,0.2128 -0.2653,0.2551 0.1527,0.2188 -0.4472,0.1533 -0.4182,-0.0457 -0.1492,0.2689 -0.3821,-0.2252 -0.5818,0.1717 -0.9735,-0.1194 -1.594,-0.0903 -1.1631,0.1938 -1.1141,-0.2861 -1.9449,-0.9974 -1.6044,-1.3734 -0.675,-5.6017 -0.8744,-6.9239 -0.6979,0.074 -0.4813,1.2027 -0.5153,1.8986 -0.0431,0.8853 0.0319,1.675 0.0317,2.5537z"/>
  <path class="fil6" d="M69.1422 131.8459c-0.6292,0.5113 -1.2293,4.269 -1.2738,5.2957 -0.0472,1.0913 -0.0109,2.1106 0.1701,3.1588 0.1932,1.1184 0.2423,1.6384 1.4185,1.9972 -0.4091,-2.8462 -0.679,-5.3033 -0.1242,-8.1838 0.4879,-2.5335 1.4308,-4.0946 2.7045,-6.03 -1.5374,0.501 -1.9274,3.4267 -2.8951,3.7621z"/>
  <path class="fil14" d="M65.5928 152.2247l-0.1469 -0.1917c-0.0577,-0.0983 0.5942,-0.3836 0.8201,-0.9539 1.005,-2.5371 1.0294,-2.0512 2.7127,-3.5476 -2.8385,-0.2294 -3.1126,1.3403 -4.6204,2.9355 -2.6015,2.7525 -3.3501,2.5235 -4.0765,3.3238 2.0411,-0.7375 4.4846,-1.0775 5.311,-1.5661z"/>
  <path class="fil12" d="M121.2163 135.5933c0.5106,0.0262 2.5904,1.1378 3.3764,1.3889 1.6974,0.5422 2.5746,0.6059 4.2655,0.1008 0.844,-0.3693 1.5716,-0.8213 1.7917,-1.7494 -2.1304,0.5498 -2.0043,1.3569 -4.6869,0.7077 -1.0683,-0.2585 -3.0912,-1.1149 -3.3597,-2.1908 -0.5345,0.3305 -1.1756,1.1653 -1.387,1.7428z"/>
  <path class="fil11" d="M61.6179 135.812c-1.2537,1.1317 -0.9027,6.1214 -0.1874,7.4412 0.1957,0.3611 0.7754,0.8041 1.0934,1.1838 1.5977,1.9078 1.6288,3.6015 2.1765,4.2256 0.8191,-1.0746 -1.5783,-4.3862 -2.0551,-5.6065 -0.997,-2.5517 -1.0128,-4.5403 -1.0274,-7.2441z"/>
  <path class="fil2" d="M109.7156 125.8741c-1.7412,-2.9297 -9.8174,-6.7445 -13.2979,-7.1931 1.0585,0.5177 2.324,1.0866 3.488,1.5944 3.065,1.337 6.9606,3.9147 9.8099,5.5987z"/>
  <path class="fil4" d="M115.8991 146.8145l-0.4079 0.429c0.1651,0.5508 0.2357,0.4238 0.2808,1.1509 0.2049,-0.5788 0.5212,-0.8575 1.1832,-0.8671l0.4886 1.7632c0.1262,-0.3464 0.8828,-1.4777 1.3163,-1.675 0.6582,0.2442 0.8328,0.8587 1.1381,1.4496 1.1684,-0.9794 1.3996,-3.2121 -2.4082,-2.9605l-1.5909 0.7099z"/>
  <path class="fil11" d="M124.2471 126.1325c-0.0756,-0.8972 -0.6963,-0.8944 -1.4599,-1.4318 -0.7639,-0.5376 -0.8306,-0.614 -1.879,-0.696 0.0819,-0.2176 0.3744,-0.4072 0.115,-0.658 -0.3578,-0.3458 -0.4944,-0.3368 -0.9071,-0.3251 -0.3946,0.1866 -2.8042,-0.2603 -3.751,-0.098l3.8907 1.0254 -2.7501 0.0708c0.8125,1.1275 3.0581,0.4954 4.2711,0.8844 1.6827,0.5396 1.5722,1.9902 2.3602,2.8389 0.2452,-1.6111 -0.4414,-1.5042 0.1101,-1.6106z"/>
  <path class="fil15" d="M58.8419 135.1496c-0.5023,0.9959 -0.4272,6.8281 0.6813,7.7553l-0.2841 -2.5807c-0.0716,0.4633 0.1622,1.2641 0.3071,1.7767 0.196,0.6935 0.2221,1.346 0.8864,1.5553l0.1159 -0.4957c0,-0.0006 -0.1031,-0.4548 -0.1046,-0.46 -0.0863,-0.2921 -0.1806,-0.5873 -0.265,-0.883 -0.6311,-2.2123 -0.7287,-4.6782 -1.144,-5.4905l-0.193 -1.1774z"/>
  <path class="fil11" d="M66.7166 151.1937c0.8203,-0.2779 1.6004,-0.9106 2.502,-1.2609 0.7362,-0.286 2.1947,-0.559 2.7158,-0.982 -1.3478,-1.7482 -3.9804,-1.2898 -5.2178,2.2429z"/>
  <path class="fil14" d="M59.4367 144.8316c-0.9723,-0.0102 -1.7374,-2.2211 -2.4887,-1.1877 0.207,0.3366 2.8517,2.2601 3.4329,2.3183l0.1147 -1.231 1.7303 2.7346c-0.0409,-0.9926 -0.5889,-1.8823 -0.8867,-2.7596 0.5951,0.4998 1.5424,2.0749 2.2086,2.4366 -0.2052,-1.059 -0.8317,-1.9974 -1.5895,-2.7148 -1.429,-1.3529 -1.4546,-0.0153 -2.5216,0.4036z"/>
  <path class="fil2" d="M97.7875 139.9773c-0.4212,-0.2244 -0.3674,-0.4254 -1.1765,-0.7401 -0.5462,-0.2125 -1.0435,-0.312 -1.5731,-0.5205 0.3923,1.7758 0.2999,2.3242 -0.1025,4.0471 1.2449,-0.2483 2.7839,-1.4668 2.8521,-2.7865z"/>
  <path class="fil2" d="M92.1523 142.6686c0.8674,-0.6064 1.7459,-2.8066 1.3079,-3.8195 -0.6809,-0.5476 -1.6185,-0.2774 -2.4573,-0.1153l1.1494 3.9348z"/>
  <path class="fil2" d="M91.1983 154.3333l3.3078 -0.7428c-0.0916,-1.0041 -1.2445,-2.5329 -1.7451,-3.437 -0.0263,0.0365 -0.0604,0.0475 -0.0714,0.1147l-0.3159 1.0276c-0.0787,0.3869 -0.1828,0.7424 -0.3096,1.1139 -0.25,0.7324 -0.6645,1.3228 -0.8658,1.9236z"/>
  <path class="fil2" d="M107.2192 143.6273c-0.0925,-0.6653 -1.6083,-0.591 -2.2156,-0.7842 -0.4556,0.3106 -0.2022,-0.1728 -0.2127,0.6941 -0.0088,0.7214 0.1125,0.818 -0.2564,1.8565 -0.2043,0.5753 -0.6085,1.3403 -1.087,1.653 1.2674,-0.2202 3.4723,-2.1855 3.7717,-3.4194z"/>
  <path class="fil2" d="M86.5352 155.4201c1.0003,0.047 2.2152,-0.3834 3.1809,-0.6371 0.3891,-0.203 0.3172,-0.1735 0.1123,-0.7769l-0.8341 -2.6415c-0.3443,0.5009 -0.7876,1.5072 -1.2255,2.1555 -0.4503,0.6668 -0.8017,1.2135 -1.2336,1.9z"/>
  <path class="fil2" d="M101.5983 141.9761l-0.2904 3.3912c1.2149,-0.1965 2.6058,-1.4864 2.9072,-2.6433 -0.3358,-0.1772 -0.9377,-0.3369 -1.3419,-0.5035 -0.6228,-0.2568 -0.8285,-0.5776 -1.2749,-0.2444z"/>
  <path class="fil12" d="M102.7528 115.6798c0.2493,-0.3639 0.8115,-0.6297 1.1825,-1.0488 0.4035,-0.4558 0.5709,-0.7713 1.0821,-1.1885 1.8869,-1.54 6.2565,-5.029 8.3712,-5.5884l1.3527 -0.664c-1.5745,0.0088 -5.5838,2.4001 -6.9024,3.3782 -0.7021,0.5208 -4.7903,3.7888 -5.1893,4.6658 -0.2923,0.6424 -0.2335,0.1761 0.1032,0.4457z"/>
  <path class="fil2" d="M124.3091 169.4394c0.6098,0.0158 0.2857,0.058 0.4168,-0.1324 -0.2527,-0.583 -0.4505,-0.9783 -0.7426,-1.543 -0.3089,-0.597 -0.8416,-1.2888 -0.2443,-1.6575 -0.6106,-1.5037 -1.5975,-1.5387 -3.1017,-1.7968 0.2431,1.0078 3.5058,4.3192 3.6718,5.1297z"/>
  <path class="fil2" d="M100.9381 141.7246l0.0438 -0.4055c-0.4989,-0.1768 -1.021,-0.3713 -1.4554,-0.5875 -0.4207,-0.2094 -0.9613,-0.6173 -1.25,-0.4106 0.5019,2.0506 0.4047,1.9803 -0.6039,3.6651 1.2166,-0.2215 2.8882,-1.0594 3.2655,-2.2615z"/>
  <path class="fil15" d="M102.7528 115.6798l1.1155 0.2019c0.6264,-1.2297 3.1614,-3.5634 4.2576,-4.4499 1.1155,-0.9021 4.129,-2.9511 5.516,-3.3249l-0.2533 -0.2528c-2.1147,0.5594 -6.4843,4.0484 -8.3712,5.5884 -0.5112,0.4172 -0.6786,0.7327 -1.0821,1.1885 -0.371,0.4191 -0.9332,0.6849 -1.1825,1.0488z"/>
  <path class="fil2" d="M59.8932 115.2172c-0.1262,2.4376 0.1226,3.3405 -0.6189,5.8379 -0.2427,0.8177 -1.7866,4.9625 -1.4641,4.3767 0.3779,-0.6956 0.9943,-1.3263 1.3582,-2.0658 0.9702,-1.9714 1.8253,-6.3219 0.8204,-8.4703l-0.0956 0.3215z"/>
  <path class="fil10" d="M96.7144 129.4677c-0.1602,-1.0576 -1.0943,-0.3546 -2.1597,-1.2755 -1.0607,-0.9168 -0.7568,-1.7853 -1.2595,-2.1962 -1.2958,0.202 -0.767,2.3567 0.0349,2.8844 0.6339,0.4172 2.6306,0.9052 3.3843,0.5873z"/>
  <path class="fil12" d="M83.3787 112.613c1.7971,0.1093 3.7578,-0.0929 5.6487,0.0075 1.7095,0.0907 3.759,0.6922 5.2868,0.6516 -1.2634,-1.9454 -8.7984,-1.1494 -10.9355,-0.6591z"/>
  <path class="fil2" d="M120.3145 163.7057c0.627,0.0732 1.4295,0.1919 1.9876,-0.1003 -0.0539,-0.6119 -0.7021,-0.9255 -1.2845,-1.2251l-3.8073 -1.0742c0.2128,0.4623 0.9306,1.019 1.2918,1.4235 0.9333,1.0454 0.7735,0.4549 1.8124,0.9761z"/>
  <path class="fil15" d="M80.0628 132.5799c0.4105,-0.346 0.4923,-0.6522 0.9273,-1.0563 1.392,-1.2931 1.9846,-1.6318 3.7358,-2.3949 -0.7989,-0.3701 -2.2026,0.6258 -3.0587,0.8876 0.3096,-0.8065 1.1544,-1.1991 1.4928,-1.9071 -1.9914,0.2713 -3.1668,2.5611 -3.0972,4.4707z"/>
  <path class="fil2" d="M97.0269 153.6332l0.7161 0.115c0.7789,-0.1604 -0.0414,-1.6878 -0.2805,-2.1378 -0.4479,-0.8432 -0.6954,-0.9919 -1.2955,-1.6282 0.0936,1.2887 -0.3029,2.4262 -0.5796,3.6432l1.4395 0.0078z"/>
  <path class="fil2" d="M87.9426 140.1887c0.1866,0.584 0.5169,1.0719 0.7365,1.7111 0.2017,0.5875 0.3533,1.2092 0.6086,1.7704 0.8695,-0.7292 2.0054,-5.6281 -1.3451,-3.4815z"/>
  <path class="fil2" d="M98.5416 153.9595c1.1223,0.1679 1.7516,0.5709 2.6703,0.7925 0.3786,-0.8902 -0.2447,-2.8344 -0.9459,-3.487 -0.2704,0.4628 -0.3812,0.957 -0.7484,1.4875 -0.3709,0.5359 -0.6654,0.6339 -0.976,1.207z"/>
  <path class="fil13" d="M83.3401 143.998c0.7336,-0.1838 1.0518,-1.0225 1.5962,-1.5577 0.6059,-0.5955 2.7755,-2.4921 3.4359,-2.8 1.4258,-0.6647 1.1404,-0.0564 2.2225,0.2093 0.1209,-0.7122 -0.0618,-0.9748 -0.0771,-1.6796 -1.4542,0.1006 -3.1547,1.4668 -4.2366,2.3477l-2.9409 3.4803z"/>
  <path class="fil2" d="M104.2519 155.6385c0.3585,0.286 0.7592,0.3224 1.2825,0.4171 0.8035,-0.2261 0.4823,-0.5329 0.8557,-0.9771 0.2799,-0.3329 0.4806,-0.1529 0.7831,-0.9315 0.3495,-0.8995 0.1046,-1.8588 -0.3697,-2.6486l-0.0648 0.2867c-0.037,0.9988 0.4664,0.3554 -0.3682,3.1447 -0.4262,-0.6474 -0.1089,-1.4274 -0.1503,-2.2923 -0.3264,0.5222 -0.5224,1.0638 -0.9422,1.6085 -0.4149,0.5383 -0.6521,0.7596 -1.0261,1.3925z"/>
  <path class="fil2" d="M84.0578 155.0742c0.796,0.2496 1.105,0.4249 2.0082,0.2815 0.5619,-1.2157 0.3653,-2.4424 -0.1063,-3.6515l-1.9019 3.37z"/>
  <path class="fil2" d="M98.5084 127.3961c-0.222,-1.3191 -5.3741,-5.6244 -6.8045,-6.2053 0.3752,0.5738 6.2849,6.029 6.8045,6.2053z"/>
  <path class="fil12" d="M65.4459 152.033l0.1469 0.1917c2.4606,-0.4088 8.5809,-2.7904 10.5861,-4.363l-0.2012 0.0024c-3.5849,1.5903 -6.8133,2.9406 -10.5318,4.1689z"/>
  <path class="fil14" d="M124.3091 169.4394l0 0.0976 2.4815 0.217c-0.1909,-0.4066 -2.6093,-3.1764 -3.0516,-3.6475 -0.5973,0.3687 -0.0646,1.0605 0.2443,1.6575 0.2921,0.5647 0.4899,0.96 0.7426,1.543 -0.1311,0.1904 0.193,0.1482 -0.4168,0.1324z"/>
  <path class="fil7" d="M118.5571 155.2709c1.2174,0.4434 3.6618,-0.1505 4.4293,-1.2012 -0.6675,0.0255 -1.2559,0.1142 -1.9526,0.1113 -0.6804,-0.0028 -1.2504,-0.1244 -1.9115,-0.0545l-0.6023 0.0883 0.0371 1.0561z"/>
  <path class="fil2" d="M85.899 142.0966l-0.433 0.2705c0.122,0.7365 1.0173,2.2161 1.7119,2.3327 0.5051,-0.7652 0.4586,-1.7379 0.4796,-2.6389l-0.911 -0.2215 -0.8017 0.5176 -0.0458 -0.2604z"/>
  <path class="fil2" d="M103.3551 152.5085c-0.3138,1.1849 -1.2097,1.6459 -1.4956,2.4571l1.9219 0.6606c0.6434,-1.2193 0.2042,-2.3442 -0.1773,-3.5466l-0.249 0.4289z"/>
  <path class="fil16" d="M74.0877 158.5812c-1.0126,0.1483 -1.0546,-0.1036 -1.6499,-0.72 -0.4619,-0.4783 -1.051,-0.7486 -1.0554,-1.4131 -0.3783,0.2741 -1.1325,1.8115 -1.2751,2.334 0.7335,-0.0259 1.4192,0.0278 2.1331,0.0299 0.5203,0.0016 1.4967,0.0347 1.8473,-0.2308z"/>
  <path class="fil2" d="M107.6477 144.9416c-0.0175,0.7878 -0.2279,1.2655 -0.6884,1.8723 1.1448,-0.8931 2.4011,-1.8166 2.5204,-3.5624l-1.6609 -0.0121c-0.0174,0.5703 0.0715,1.2592 -0.1711,1.7022z"/>
  <path class="fil17" d="M60.7216 161.7362c-1.4819,0.9412 -3.2411,1.1539 -3.1217,3.7082 2.7781,-4.853 4.4723,-2.8977 7.5045,-4.2355l-0.6309 -0.0241 -3.7519 0.5514z"/>
  <path class="fil2" d="M124.9557 139.5257c0.0309,0.7979 -0.4479,1.3499 -0.5962,2.1228 0.9461,-0.6903 2.4937,-1.8088 2.5757,-3.0917 -0.607,0.1588 -0.9979,0.0025 -1.631,-0.0181 -0.229,0.5224 -0.0071,0.5819 -0.3485,0.987z"/>
  <path class="fil17" d="M117.7854 158.0653l-1.0288 0.5269 -0.1821 0.2532c0.9479,-0.0424 6.5008,-1.6698 7.3793,-3.4189 -0.7467,0.2583 -1.9995,1.1417 -2.8333,1.5606 -1.0454,0.5253 -2.2176,0.7293 -3.3351,1.0782z"/>
  <path class="fil2" d="M126.8039 151.2671c1.6961,0.793 2.2648,1.7503 3.1067,3.0724 0.4651,0.7304 0.2473,0.4094 0.4009,0.2296 -0.1559,-2.2002 -2.1455,-3.7278 -4.2706,-3.9332l0.763 0.6312z"/>
  <path class="fil2" d="M120.7378 138.4216c0.1709,0.5235 0.1704,1.313 0.4408,1.6732 0.4814,-0.489 1.1679,-1.8418 1.3237,-2.4847 -0.803,-0.172 -0.4821,-0.41 -1.243,-0.6714 -0.4367,0.8153 -0.6453,0.5102 -0.5215,1.4829z"/>
  <path class="fil11" d="M79.0691 131.1667c0.7678,-0.9816 0.9047,-1.4008 1.8864,-2.3791 0.6584,-0.656 2.0915,-1.4758 2.4387,-1.9541 -2.0575,0.0633 -4.1388,2.2976 -4.3251,4.3332z"/>
  <path class="fil2" d="M124.3858 149.4231c-0.139,-1.4189 -0.3815,-1.2835 -0.7506,-2.367l-0.3767 -0.3484c-0.0644,1.6129 -0.5055,1.6357 -1.0311,2.9076l2.1584 -0.1922z"/>
  <path class="fil2" d="M108.7481 117.9945l7.103 0.2853c-0.7424,-1.1459 -5.9574,-0.7083 -7.103,-0.2853z"/>
  <path class="fil15" d="M75.2175 158.398c-0.7115,-1.6986 -1.6919,-2.213 -2.0641,-4.4073 -1.0023,0.9863 -0.7681,1.3871 0.0848,2.4946 0.6379,0.8282 1.1022,1.3741 1.9793,1.9127z"/>
  <path class="fil12" d="M126.0429 146.233c0.4917,-1.729 -1.5264,-0.3736 -1.083,-4.207 -0.5862,0.0444 -0.0404,-0.0263 -0.5086,0.2655 -0.2618,0.1632 -0.2676,0.0948 -0.491,0.2568 0.0757,0.7437 0.2474,1.6257 0.7089,2.1991 0.807,1.0023 0.9223,1.3814 1.3737,1.4856z"/>
  <path class="fil10" d="M123.2585 146.7077l0.3767 0.3484c0.1831,-0.0278 0.4593,0.4201 0.6047,0.6697l0.433 1.0104c0.0087,-0.0218 0.0377,0.0711 0.0622,0.1027 0.3019,-0.3367 0.4632,-0.5615 0.5479,-1.0054 0.2365,-1.0163 0.0672,-1.1806 -0.7363,-1.4286 -0.4433,-0.1369 -0.804,-0.2449 -1.1581,0.0851l-0.1301 0.2177z"/>
  <path class="fil10" d="M120.4238 146.3211c0.55,0.675 1.6743,0.7801 1.7501,2.3612 0.1327,-0.2807 0.8917,-1.0605 0.6426,-2.2256 -0.618,-0.2795 -1.6462,-0.1697 -2.3927,-0.1356z"/>
  <path class="fil13" d="M92.4504 138.3424c1.2028,0.0204 0.5054,0.3327 1.4444,0.4025 0.2882,-0.4697 0.3385,-0.4657 0.2767,-1.0245 -0.5383,-0.038 -2.3753,-0.0727 -2.8883,0.0792 -0.6637,0.1965 -0.3472,0.0594 -0.4981,0.4805 0.4923,0.4791 -0.1086,0.0322 1.6653,0.0623z"/>
  <path class="fil2" d="M83.749 144.2557c0.3187,0.6313 0.6383,1.5627 1.3935,1.5359 0.2446,-0.9827 0.0823,-1.6563 -0.2839,-2.6068l-1.1096 1.0709z"/>
  <path class="fil18" d="M104.0895 149.4816c-0.4991,1.2274 -0.6011,1.6117 -0.0094,2.8705 0.6057,-0.1592 0.4885,-0.1537 0.9024,-0.5638 -0.2205,-0.6559 -0.4713,-1.8541 -0.893,-2.3067z"/>
  <path class="fil2" d="M120.2655 149.8661c0.552,0.0025 1.1074,-0.0644 1.5152,-0.347 0.0417,-0.8512 -0.1556,-1.5585 -0.609,-2.2628 -0.0418,0.1012 -0.9037,2.5837 -0.9062,2.6098z"/>
  <path class="fil10" d="M83.8443 152.6493c0.3657,0.4077 0.1324,0.0033 0.3327,0.4828l0.0078 0.5151c0.1943,-0.7575 0.1593,-0.3683 0.7121,-0.8619 0.3406,-0.3042 0.5752,-0.6176 0.7439,-1.0462 -0.2294,-0.3919 -0.2723,-0.3402 -0.4806,-0.6168 -1.0534,0.3163 -0.789,0.6423 -1.2845,0.9193l-0.0314 0.6077z"/>
  <path class="fil12" d="M71.3824 156.4481c0.0044,0.6645 0.5935,0.9348 1.0554,1.4131 0.5953,0.6164 0.6373,0.8683 1.6499,0.72 -1.0006,-0.7409 -1.6398,-1.6785 -2.332,-2.8068l-0.3733 0.6737z"/>
  <path class="fil2" d="M84.1848 153.6472l-0.0078 -0.5151c-0.7349,-0.1991 -1.1834,0.2491 -1.9435,0.5274 0.0926,0.3161 -0.0847,0.058 0.2391,0.4215 0.3814,0.4281 0.8089,0.6308 1.329,0.7226l0.3832 -1.1564z"/>
  <path class="fil2" d="M119.7253 139.3854l0.0031 -1.0885c-0.2564,-0.4404 -0.0819,-0.3808 -0.4279,-0.7421 -0.4239,0.5691 -0.4043,0.626 -0.909,1.1116 0.3551,0.5508 0.6356,1.3607 1.0966,1.7675l0.2372 -1.0485z"/>
  <path class="fil2" d="M117.657 150.1491c0.43,0.0845 1.3537,0.0612 1.7193,-0.2128 0.1578,-0.6482 0.0907,-1.3325 -0.4739,-1.7178 -0.3521,0.2123 -0.3733,0.4907 -0.6361,0.9442 -0.2024,0.3494 -0.4145,0.6382 -0.6093,0.9864z"/>
  <path class="fil2" d="M117.4798 141.5367c0.5009,-0.4802 0.6244,-2.0785 0.5037,-2.7941 -0.3872,-0.0002 -0.8445,0.2979 -1.1858,0.5332l0.6821 2.2609z"/>
  <path class="fil2" d="M114.8677 140.2719c0.3097,0.5868 0.5989,1.7584 1.0472,2.1076 0.2665,-0.7514 0.3384,-2.0032 0.1176,-2.7384l-1.1648 0.6308z"/>
  <path class="fil7" d="M113.9836 142.2253l0.2325 0.8446c0.0476,-0.0532 0.0835,-0.05 0.1583,-0.2149l0.1602 -0.869c0.0359,-0.4862 0.0155,-0.9756 -0.0115,-1.4611 -0.5734,0.3947 -0.49,0.6736 -0.9374,1.1139 -0.5599,0.5511 -0.5267,0.3894 -0.4991,1.3726l0.897 -0.7861z"/>
  <path class="fil2" d="M114.4305 147.8855l-0.9248 0.4567c0.2033,0.5138 0.5148,0.8352 0.9866,1.1083 0.6112,-0.259 0.8993,-0.5209 0.8507,-1.2083l-1.0166 0.429c0.3292,-0.3384 0.8965,-0.6858 0.7851,-1.1069l-0.681 0.3212z"/>
  <path class="fil2" d="M115.2337 149.9869c0.6205,-0.0291 1.0122,0.262 1.594,0.0903 0.1924,-0.6175 0.1078,-1.2023 -0.0587,-1.8319 -0.4431,0.4491 -1.3394,1.188 -1.5353,1.7416z"/>
  <path class="fil2" d="M125.0427 149.3184l1.3642 -0.2765c0.1329,-0.7688 -0.1116,-1.8682 -0.69,-2.3628 0.2119,1.4021 -0.3158,1.5049 -0.6742,2.6393z"/>
  <path class="fil17" d="M50.8143 149.6126l1.1496 -0.0309c-0.1715,-1.3504 -0.4375,-0.9433 -0.0328,-2.4969 -0.7288,0.487 -1.1708,1.6391 -1.1168,2.5278z"/>
  <path class="fil2" d="M124.3774 138.6374l0.0673 -0.3102c-0.1767,-0.0509 -0.547,-0.1917 -0.6998,-0.2276 -0.6793,-0.1595 -0.3859,-0.3129 -0.5924,0.1797l-0.0326 1.6509c0.7178,-0.2861 0.9275,-0.6007 1.2575,-1.2928z"/>
  <path class="fil2" d="M127.2286 140.4566c0.6521,-0.3585 1.3603,-1.3061 1.2756,-2.1269l-1.1483 -0.0199c0.0592,0.9492 0.1237,1.1821 -0.1273,2.1468z"/>
  <path class="fil12" d="M73.1534 153.9907c0.3722,2.1943 1.3526,2.7087 2.0641,4.4073l0.2845 -0.0426 -2.3427 -4.6284 -0.0059 0.2637z"/>
  <path class="fil12" d="M82.5703 145.6403c0.6115,0.5147 0.4273,0.9016 1.1437,1.2356 -0.0526,-0.6731 -0.1025,-1.6741 -0.5237,-2.1538 -0.534,0.3847 -1.3365,1.5476 -0.9877,2.1157l0.3677 -1.1975z"/>
  <path class="fil12" d="M110.0595 143.3812l-0.4634 1.805 1.2759 -1.2996 0.5548 -1.0252c-0.5623,0.0814 -1.0665,0.124 -1.3673,0.5198z"/>
  <path class="fil10" d="M120.4855 135.9677c-0.6731,0.9518 -0.5537,0.764 -0.7934,1.8925l0.4347 -0.06c0.3256,-0.5629 0.7108,-1.1452 1.2601,-1.5307l-0.524 -0.392 -0.3774 0.0902z"/>
  <path class="fil2" d="M126.8691 145.0456c-0.4698,0.6722 -0.8545,2.1923 0,2.6353 0.3402,-0.6629 0.3688,-2.0556 0,-2.6353z"/>
  <path class="fil12" d="M107.2256 157.7703l-0.1083 0.4099c0.7343,-0.1701 0.9365,-0.3961 1.5696,-0.7103l0.1719 -1.3539c-0.1904,0.1342 -1.5331,1.4976 -1.6332,1.6543z"/>
  <path class="fil10" d="M104.5968 154.5879c0.5635,-0.322 1.0575,-1.5198 1.1387,-2.1698 -1.1811,0.2766 -1.2724,1.049 -1.1387,2.1698z"/>
  <path class="fil2" d="M129.0083 137.7117l-0.2919 1.8281c1.057,-0.4761 0.6098,-1.0252 1.1851,-1.7215l-0.1981 -0.452 -0.6951 0.3454z"/>
  <path class="fil2" d="M81.987 152.5507c-0.2401,0.4663 -0.2546,0.1803 -0.284,0.5824 0.8432,0.7265 1.5596,-0.416 1.4574,-1.2947 -0.5681,0.214 -0.4582,0.5357 -1.1734,0.7123z"/>
  <path class="fil12" d="M81.3866 151.4992l-0.3694 0.0827 0.2855 0.9523 0.6382 -0.1741c0.3977,-0.54 0.4715,-0.5956 0.5455,-1.2962 -0.3831,0.1802 -0.8274,0.788 -1.0998,0.4353z"/>
  <path class="fil12" d="M130.8109 136.5734l-0.8468 2.3203c0.0387,-0.1188 0.5538,-0.5208 0.7211,-0.7864 0.1564,-0.2482 0.4385,-0.8232 0.5163,-0.9482l0.012 -1.0854 -0.4026 0.4997z"/>
  <polygon class="fil7" points="85.899,142.0966 85.9448,142.357 86.7465,141.8394 87.6575,142.0609 87.294,140.7947 "/>
  <path class="fil18" d="M80.7704 150.7347l0.0052 0.5787 0.4103 -0.2568c0.3128,-0.5048 0.5395,-0.7198 0.5465,-1.3842l-0.962 1.0623z"/>
  <path class="fil12" d="M113.4774 147.2688c-0.3466,0.486 -0.4628,0.1788 -0.2743,0.7798l0.8655 -0.4878 0.2688 -0.6929 -0.86 0.4009z"/>
  <path class="fil19" d="M69.7046 157.5122c-0.4824,0.3681 -0.8147,0.8007 -1.0164,1.3938l0.7023 -0.1576 0.3141 -1.2362z"/>
  <path class="fil2" d="M94.8552 127.6052l-0.1132 0.3553c0.4621,0.3738 0.6025,0.5569 0.9216,0.0246 -0.1397,-0.5248 -0.368,-0.3915 -0.8084,-0.3799z"/>
  <polygon class="fil12" points="112.8614,146.3463 112.8314,147.2333 113.0451,147.0893 113.314,146.2624 "/>
  <path class="fil12" d="M94.8552 127.6052c-0.1782,-0.4856 -0.1842,-0.4901 -0.6816,-0.584 0.1541,0.5889 0.0938,0.5232 0.6816,0.584z"/>
 </g>
</svg>
